<svg width="30" height="30" viewBox="0 0 30 30" fill="none" xmlns="http://www.w3.org/2000/svg">
<mask id="mask0_962_1731" style="mask-type:alpha" maskUnits="userSpaceOnUse" x="0" y="0" width="30" height="30">
<rect width="30" height="30" fill="#D9D9D9"/>
</mask>
<g mask="url(#mask0_962_1731)">
<path d="M7.35136 22.0449C8.58636 21.1737 9.84906 20.504 11.1395 20.0359C12.4299 19.5679 13.8067 19.334 15.2698 19.334C16.7329 19.334 18.108 19.5679 19.3951 20.0359C20.6822 20.504 21.9572 21.1737 23.2201 22.0449C24.0709 20.9958 24.6967 19.9198 25.0973 18.8171C25.4979 17.7142 25.6982 16.5313 25.6982 15.2684C25.6982 12.3582 24.6876 9.89233 22.6664 7.87087C20.6449 5.84962 18.1791 4.83899 15.2689 4.83899C12.3586 4.83899 9.89282 5.84962 7.87136 7.87087C5.85011 9.89233 4.83948 12.3582 4.83948 15.2684C4.83948 16.5313 5.04188 17.7142 5.44667 18.8171C5.85167 19.9198 6.48657 20.9958 7.35136 22.0449ZM15.266 16.5537C13.9965 16.5537 12.9269 16.118 12.0573 15.2465C11.1877 14.375 10.7529 13.3045 10.7529 12.0349C10.7529 10.7653 11.1886 9.69576 12.0601 8.82618C12.9316 7.95639 14.0021 7.52149 15.2717 7.52149C16.5413 7.52149 17.6108 7.95722 18.4804 8.82868C19.35 9.70014 19.7848 10.7707 19.7848 12.0402C19.7848 13.3098 19.3491 14.3794 18.4776 15.249C17.6061 16.1188 16.5356 16.5537 15.266 16.5537ZM15.2785 27.8099C13.5552 27.8099 11.9334 27.4815 10.4132 26.8246C8.89282 26.1677 7.56261 25.2659 6.42261 24.119C5.28282 22.9723 4.38198 21.6414 3.72011 20.1262C3.05823 18.611 2.72729 16.986 2.72729 15.2512C2.72729 13.5441 3.05969 11.9324 3.72448 10.4162C4.38927 8.89972 5.29073 7.56743 6.42886 6.41931C7.56698 5.27139 8.89396 4.36899 10.4098 3.71212C11.9258 3.05524 13.5513 2.72681 15.286 2.72681C16.9931 2.72681 18.6048 3.0592 20.121 3.724C21.6375 4.38879 22.9673 5.29056 24.1104 6.42931C25.2533 7.56827 26.1557 8.89597 26.8176 10.4124C27.4795 11.9287 27.8104 13.5441 27.8104 15.2587C27.8104 16.982 27.482 18.6038 26.8251 20.124C26.1682 21.6444 25.2658 22.9732 24.1179 24.1102C22.9698 25.2471 21.6381 26.148 20.1229 26.8127C18.6079 27.4775 16.9931 27.8099 15.2785 27.8099ZM15.2689 25.6977C16.357 25.6977 17.4418 25.5263 18.5232 25.1834C19.6047 24.8404 20.6206 24.2921 21.571 23.5384C20.6265 22.868 19.6171 22.3516 18.5429 21.9893C17.4688 21.6272 16.3774 21.4462 15.2689 21.4462C14.1603 21.4462 13.0684 21.6251 11.9932 21.9831C10.9178 22.341 9.91865 22.8615 8.99573 23.5446C9.92677 24.2888 10.933 24.8337 12.0145 25.1793C13.0959 25.5249 14.1807 25.6977 15.2689 25.6977ZM15.2701 14.4415C15.9476 14.4415 16.5174 14.21 16.9795 13.7471C17.4416 13.2844 17.6726 12.7142 17.6726 12.0365C17.6726 11.3588 17.4413 10.7889 16.9785 10.3268C16.5156 9.86472 15.9453 9.63368 15.2676 9.63368C14.5901 9.63368 14.0203 9.86514 13.5582 10.3281C13.0961 10.7908 12.8651 11.361 12.8651 12.0387C12.8651 12.7164 13.0965 13.2863 13.5592 13.7484C14.0221 14.2105 14.5924 14.4415 15.2701 14.4415Z" fill="#1C1B1F"/>
</g>
</svg>
