<svg xmlns="http://www.w3.org/2000/svg" width="702.031" height="159.411" viewBox="0 0 526.523 119.558"><path d="M91.63 88.51H30.553L17.91 117.245H1L53.047 2.314H69.3l52.21 114.93h-17.24zm-5.746-13.134L61.091 19.061 36.3 75.376zM193.207 2.315c14.887 0 26.6 3.557 35.136 10.671 8.537 7.115 12.807 16.912 12.807 29.389 0 12.479-4.27 22.276-12.807 29.39-8.537 7.115-20.25 10.672-35.136 10.672h-28.403v34.807h-16.418V2.314zm-.49 65.838c10.396 0 18.332-2.217 23.805-6.65 5.472-4.433 8.21-10.808 8.21-19.128 0-8.319-2.738-14.694-8.21-19.128-5.473-4.432-13.409-6.648-23.806-6.648h-27.912v51.553zm82.366-65.838h16.419v114.929h-16.419zm94.188 116.243c-8.647 0-16.992-1.341-25.037-4.023-8.045-2.682-14.366-6.158-18.963-10.426l6.073-12.807c4.38 3.94 9.988 7.143 16.83 9.605 6.84 2.463 13.873 3.695 21.097 3.695 9.524 0 16.638-1.614 21.345-4.845 4.706-3.228 7.06-7.525 7.06-12.888 0-3.94-1.286-7.14-3.86-9.604-2.571-2.462-5.745-4.351-9.521-5.664-3.777-1.314-9.113-2.791-16.008-4.434-8.647-2.079-15.626-4.16-20.935-6.238-5.307-2.08-9.85-5.282-13.627-9.606-3.775-4.323-5.663-10.152-5.663-17.486 0-6.129 1.614-11.656 4.843-16.581 3.229-4.927 8.127-8.866 14.694-11.822C354.167 2.479 362.32 1 372.062 1c6.788 0 13.465.877 20.031 2.629 6.568 1.75 12.204 4.268 16.911 7.552l-5.418 13.134a59.413 59.413 0 0 0-15.432-6.977c-5.474-1.588-10.836-2.382-16.092-2.382-9.302 0-16.28 1.696-20.933 5.091-4.652 3.393-6.977 7.77-6.977 13.134 0 3.94 1.313 7.142 3.94 9.605 2.627 2.462 5.884 4.378 9.77 5.746 3.885 1.368 9.166 2.818 15.843 4.352 8.647 2.079 15.597 4.16 20.85 6.238 5.254 2.08 9.77 5.254 13.546 9.523 3.777 4.269 5.664 10.015 5.664 17.239 0 6.021-1.64 11.522-4.925 16.5-3.284 4.98-8.264 8.922-14.941 11.822-6.676 2.9-14.885 4.352-24.628 4.352zm111.757 0c-8.646 0-16.991-1.341-25.036-4.023-8.045-2.682-14.367-6.158-18.963-10.426l6.073-12.807c4.379 3.94 9.988 7.143 16.83 9.605 6.84 2.463 13.873 3.695 21.096 3.695 9.524 0 16.639-1.614 21.346-4.845 4.705-3.228 7.06-7.525 7.06-12.888 0-3.94-1.287-7.14-3.86-9.604-2.571-2.462-5.745-4.351-9.522-5.664-3.777-1.314-9.113-2.791-16.007-4.434-8.647-2.079-15.626-4.16-20.935-6.238-5.308-2.08-9.85-5.282-13.627-9.606-3.776-4.323-5.663-10.152-5.663-17.486 0-6.129 1.614-11.656 4.843-16.581 3.228-4.927 8.127-8.866 14.693-11.822C465.924 2.479 474.078 1 483.82 1c6.787 0 13.464.877 20.03 2.629 6.569 1.75 12.205 4.268 16.912 7.552l-5.418 13.134a59.42 59.42 0 0 0-15.433-6.977c-5.473-1.588-10.836-2.382-16.091-2.382-9.303 0-16.281 1.696-20.933 5.091-4.652 3.393-6.977 7.77-6.977 13.134 0 3.94 1.312 7.142 3.94 9.605 2.626 2.462 5.883 4.378 9.77 5.746 3.885 1.368 9.166 2.818 15.842 4.352 8.647 2.079 15.598 4.16 20.851 6.238 5.254 2.08 9.77 5.254 13.546 9.523s5.664 10.015 5.664 17.239c0 6.021-1.641 11.522-4.925 16.5-3.284 4.98-8.265 8.922-14.942 11.822-6.675 2.9-14.884 4.352-24.627 4.352" fill="#1a1a18" data-name="Слой 1"/></svg>