<svg width="32" height="32" viewBox="0 0 32 32" fill="none" xmlns="http://www.w3.org/2000/svg">
<path fill-rule="evenodd" clip-rule="evenodd" d="M16.4546 4.16256C17.4371 2.9921 19.1145 2.09563 20.5523 2C20.7967 3.60109 20.1281 5.16171 19.2463 6.26294C18.3309 7.4199 16.7637 8.32283 15.2324 8.32283H15.1174C14.8298 6.79683 15.5631 5.22331 16.4546 4.16256ZM18.0429 8.79265C18.8639 8.4875 19.7661 8.15209 21.0828 8.15209L21.0768 8.15444C22.9023 8.15444 24.8385 9.13305 26.2164 10.8227C21.7023 13.2522 22.4356 19.5891 27 21.2859C26.377 22.6558 26.075 23.2636 25.2627 24.4746C24.134 26.1584 22.5458 28.2588 20.5688 28.2793H20.5329C19.7432 28.2793 19.2185 28.0432 18.6534 27.789C17.994 27.4924 17.2796 27.171 16.0254 27.171H15.9894C14.7166 27.178 13.981 27.5004 13.3052 27.7967C12.7254 28.0509 12.1896 28.2857 11.3962 28.2857H11.3603C9.38331 28.2652 7.87601 26.3696 6.74734 24.6793C3.59196 19.9576 3.26126 14.4151 5.20949 11.4722C6.59697 9.38533 8.78183 8.1603 10.8307 8.1603C11.9279 8.1603 12.8115 8.46821 13.6523 8.76122C14.4155 9.02719 15.1436 9.2809 15.9643 9.2809C16.7295 9.2809 17.3579 9.04731 18.0429 8.79265Z" fill="#1F1F1F"/>
</svg>
