<svg width="33" height="34" viewBox="0 0 33 34" fill="none" xmlns="http://www.w3.org/2000/svg">
<mask id="mask0_575_3691" style="mask-type:alpha" maskUnits="userSpaceOnUse" x="0" y="-2" width="33" height="34">
<rect y="-1.5" width="33" height="33" fill="#D9D9D9"/>
</mask>
<g mask="url(#mask0_575_3691)">
<path d="M16.5783 17.0775L9.47337 24.7213C9.23894 24.9731 8.96199 25.0994 8.64253 25.1001C8.3233 25.1006 8.042 24.9621 7.79862 24.6844C7.56304 24.423 7.45098 24.1355 7.46243 23.8219C7.47389 23.5083 7.59741 23.2127 7.833 22.9351L14.9036 15.3282L7.79862 7.64744C7.57175 7.39564 7.45613 7.11061 7.45178 6.79234C7.44742 6.47384 7.56304 6.17576 7.79862 5.89811C8.042 5.63695 8.32112 5.50428 8.636 5.5001C8.95087 5.49591 9.23 5.62452 9.47337 5.88593L16.5783 13.5294L23.6146 5.88593C23.849 5.63412 24.1259 5.50785 24.4454 5.50711C24.7646 5.50662 25.0459 5.63695 25.2893 5.89811C25.5249 6.17576 25.637 6.4715 25.6255 6.78533C25.614 7.09891 25.4982 7.38628 25.278 7.64744L18.207 15.3282L25.278 22.9351C25.4895 23.1785 25.6032 23.4656 25.619 23.7964C25.6348 24.127 25.5249 24.423 25.2893 24.6844C25.0459 24.9621 24.7668 25.103 24.4519 25.1072C24.1371 25.1111 23.8579 24.9825 23.6146 24.7213L16.5783 17.0775Z" fill="#C7C7C7"/>
</g>
</svg>
