<svg width="23" height="22" viewBox="0 0 23 22" fill="none" xmlns="http://www.w3.org/2000/svg">
<mask id="mask0_1042_854" style="mask-type:alpha" maskUnits="userSpaceOnUse" x="0" y="0" width="23" height="22">
<rect x="0.5" width="22" height="22" fill="#D9D9D9"/>
</mask>
<g mask="url(#mask0_1042_854)">
<path d="M14.327 7.71471C14.725 8.12293 15.0345 8.63886 15.2556 9.2625C15.4768 9.88614 15.5457 10.4988 15.4623 11.1004C15.4623 11.3074 15.3951 11.4798 15.2606 11.6174C15.1262 11.7551 14.9547 11.8239 14.7461 11.8239C14.5376 11.8239 14.3642 11.7551 14.2259 11.6174C14.0877 11.4798 14.0185 11.3074 14.0185 11.1004C14.0972 10.6343 14.0699 10.1928 13.9365 9.77583C13.8031 9.35875 13.5862 9.00583 13.2857 8.71708C12.9954 8.41825 12.6399 8.20566 12.2194 8.07931C11.7988 7.95296 11.3637 7.93723 10.9142 8.0321C10.7034 8.03409 10.5234 7.97176 10.3741 7.8451C10.2248 7.7186 10.1473 7.54612 10.1415 7.32764C10.1355 7.11406 10.2028 6.93264 10.3434 6.78337C10.4838 6.63411 10.6593 6.55848 10.87 6.5565C11.4836 6.47155 12.1077 6.53962 12.7423 6.76069C13.3771 6.98175 13.9053 7.29976 14.327 7.71471ZM11.6116 5.21564C11.2188 5.21564 10.8283 5.23718 10.4401 5.28027C10.0517 5.32335 9.66919 5.39386 9.29244 5.49179C9.07656 5.53411 8.86809 5.50447 8.66704 5.40287C8.46614 5.30112 8.32864 5.15094 8.25454 4.95233C8.17036 4.75815 8.17685 4.56886 8.27402 4.38446C8.37118 4.20021 8.52297 4.07928 8.72937 4.02168C9.18511 3.89824 9.652 3.80825 10.13 3.75173C10.6079 3.69505 11.0841 3.66671 11.5587 3.66671C13.6317 3.66671 15.5352 4.21694 17.2693 5.31739C19.0033 6.4177 20.3318 7.89766 21.2547 9.75727C21.3128 9.89737 21.3599 10.0287 21.3961 10.1512C21.4323 10.2736 21.4504 10.4035 21.4504 10.541C21.4504 10.6784 21.4348 10.8142 21.4034 10.9485C21.372 11.0828 21.3271 11.2112 21.2689 11.3337C20.9681 12.0099 20.593 12.629 20.1437 13.1909C19.6944 13.7528 19.1961 14.2723 18.6489 14.7494C18.4868 14.8944 18.3041 14.9484 18.1009 14.9115C17.8977 14.8745 17.7277 14.7794 17.5908 14.6261C17.4567 14.4729 17.4046 14.2915 17.4347 14.0819C17.465 13.8724 17.5602 13.6927 17.7205 13.5426C18.2051 13.1277 18.6368 12.6707 19.0155 12.1718C19.3943 11.6726 19.7127 11.1293 19.9709 10.5417C19.1942 8.90866 18.0552 7.61273 16.5538 6.65389C15.0525 5.69506 13.4051 5.21564 11.6116 5.21564ZM11.5 17.4167C9.4378 17.4167 7.5539 16.8627 5.84829 15.7546C4.14283 14.6466 2.79938 13.1832 1.81793 11.3644C1.74781 11.243 1.69319 11.1143 1.65408 10.9785C1.61497 10.8428 1.59541 10.6989 1.59541 10.5467C1.59541 10.3946 1.61283 10.2475 1.64766 10.1056C1.6825 9.96367 1.7352 9.82716 1.80579 9.69608C2.15626 9.0315 2.55425 8.40389 2.99975 7.81325C3.4454 7.22261 3.95545 6.68094 4.52989 6.18823L2.32691 3.96348C2.17566 3.82185 2.09836 3.64471 2.095 3.43204C2.09179 3.21953 2.1697 3.03466 2.32875 2.87746C2.47755 2.73064 2.65852 2.65723 2.87164 2.65723C3.08477 2.65723 3.26986 2.73064 3.42691 2.87746L19.5449 18.9957C19.6891 19.1517 19.7589 19.3315 19.7541 19.5354C19.7494 19.7392 19.6774 19.9128 19.5382 20.0562C19.3824 20.22 19.2003 20.3019 18.9919 20.3019C18.7835 20.3019 18.6059 20.2233 18.4591 20.0661L15.1085 16.7773C14.5397 17.0155 13.9483 17.1816 13.3345 17.2755C12.7205 17.3697 12.109 17.4167 11.5 17.4167ZM5.63104 7.29693C5.06133 7.73418 4.55273 8.22208 4.10525 8.76062C3.65776 9.29901 3.29591 9.89271 3.01968 10.5417C3.81917 12.1974 4.98937 13.499 6.53029 14.4465C8.07121 15.394 9.75673 15.8678 11.5869 15.8678C11.9815 15.8678 12.3688 15.8556 12.7487 15.8313C13.1287 15.807 13.4937 15.705 13.8439 15.5252L12.6793 14.3207C12.4964 14.4194 12.3043 14.4796 12.1029 14.5012C11.9016 14.5229 11.7006 14.5338 11.5 14.5338C10.391 14.5338 9.44834 14.1457 8.67208 13.3696C7.89597 12.5934 7.50791 11.6507 7.50791 10.5417C7.50791 10.3411 7.52182 10.1411 7.54962 9.94175C7.57743 9.74237 7.63457 9.54926 7.72104 9.36241L5.63104 7.29693Z" fill="#8C8C8C"/>
</g>
</svg>
