<svg width="30" height="30" viewBox="0 0 30 30" fill="none" xmlns="http://www.w3.org/2000/svg">
<mask id="mask0_962_1734" style="mask-type:alpha" maskUnits="userSpaceOnUse" x="0" y="0" width="30" height="30">
<rect width="30" height="30" fill="#D9D9D9"/>
</mask>
<g mask="url(#mask0_962_1734)">
<path d="M15.257 26.1582C14.9397 26.1582 14.6356 26.1054 14.3448 26C14.0542 25.8946 13.7918 25.7277 13.5576 25.4994L11.7089 23.7944C9.36906 21.6486 7.28719 19.5388 5.46323 17.465C3.63927 15.3913 2.72729 13.1651 2.72729 10.7866C2.72729 8.88597 3.37604 7.29513 4.67354 6.01409C5.97084 4.73305 7.55792 4.09253 9.43479 4.09253C10.5138 4.09253 11.5603 4.3469 12.5745 4.85565C13.5886 5.36461 14.4868 6.13378 15.2689 7.16316C16.0991 6.13378 17.0057 5.36461 17.9889 4.85565C18.972 4.3469 20.0083 4.09253 21.0979 4.09253C22.9838 4.09253 24.574 4.73305 25.8685 6.01409C27.1631 7.29513 27.8104 8.88597 27.8104 10.7866C27.8104 13.1893 26.8749 15.4335 25.0039 17.5191C23.133 19.6049 21.0921 21.6823 18.881 23.7513L16.9632 25.5044C16.7311 25.7311 16.4691 25.8967 16.177 26.0013C15.8851 26.1059 15.5784 26.1582 15.257 26.1582ZM14.3057 9.51722C13.7993 8.56909 13.1124 7.77993 12.2451 7.14972C11.378 6.51972 10.4463 6.20472 9.44979 6.20472C8.13 6.20472 7.03167 6.63336 6.15479 7.49065C5.27792 8.34815 4.83948 9.45045 4.83948 10.7975C4.83948 11.8692 5.17354 12.9874 5.84167 14.1522C6.51 15.317 7.35365 16.4733 8.37261 17.621C9.39157 18.7687 10.4953 19.8827 11.6839 20.9632C12.8724 22.0436 13.9798 23.0474 15.006 23.9747C15.0781 24.0441 15.1623 24.0788 15.2585 24.0788C15.3546 24.0788 15.4386 24.0441 15.5107 23.9747C16.537 23.042 17.6444 22.0334 18.8329 20.9488C20.0215 19.864 21.1279 18.7481 22.1523 17.601C23.1767 16.4537 24.0238 15.3011 24.6935 14.1432C25.3633 12.9852 25.6982 11.8683 25.6982 10.7922C25.6982 9.44868 25.2615 8.34815 24.3879 7.49065C23.5142 6.63336 22.4134 6.20472 21.0857 6.20472C20.0828 6.20472 19.141 6.51763 18.2604 7.14347C17.3798 7.7693 16.6951 8.56055 16.2064 9.51722C16.1107 9.71055 15.9794 9.85649 15.8123 9.95503C15.6454 10.0536 15.4668 10.1028 15.2764 10.1028C15.0859 10.1028 14.9022 10.0536 14.7251 9.95503C14.548 9.85649 14.4082 9.71055 14.3057 9.51722Z" fill="#1C1B1F"/>
</g>
</svg>
