<svg width="25" height="25" viewBox="0 0 25 25" fill="none" xmlns="http://www.w3.org/2000/svg">
<path d="M12.7549 10.2275V15.0685H19.6196C19.3182 16.6253 18.4136 17.9435 17.0569 18.8299L21.1966 21.9776C23.6085 19.7959 25 16.5913 25 12.7845C25 11.8981 24.9189 11.0458 24.7681 10.2277L12.7549 10.2275Z" fill="#4285F4"/>
<path d="M5.60664 14.8794L4.67298 15.5798L1.36813 18.1025C3.46696 22.182 7.76868 25.0002 12.7548 25.0002C16.1987 25.0002 19.086 23.8866 21.1965 21.9775L17.0568 18.8298C15.9204 19.5798 14.4709 20.0344 12.7548 20.0344C9.43845 20.0344 6.62076 17.8412 5.61185 14.8866L5.60664 14.8794Z" fill="#34A853"/>
<path d="M1.3682 6.89746C0.498566 8.57921 0 10.477 0 12.4997C0 14.5224 0.498566 16.4201 1.3682 18.1019C1.3682 18.1132 5.61233 14.8746 5.61233 14.8746C5.35722 14.1246 5.20643 13.3292 5.20643 12.4995C5.20643 11.6699 5.35722 10.8745 5.61233 10.1245L1.3682 6.89746Z" fill="#FBBC05"/>
<path d="M12.7551 4.97727C14.6336 4.97727 16.3034 5.61362 17.6369 6.84091L21.2895 3.26141C19.0747 1.23872 16.1991 0 12.7551 0C7.76894 0 3.46696 2.80682 1.36813 6.89774L5.61213 10.125C6.6209 7.17044 9.43871 4.97727 12.7551 4.97727Z" fill="#EA4335"/>
</svg>
