<svg width="33" height="33" viewBox="0 0 33 33" fill="none" xmlns="http://www.w3.org/2000/svg">
<mask id="mask0_579_1387" style="mask-type:alpha" maskUnits="userSpaceOnUse" x="0" y="0" width="33" height="33">
<rect width="33" height="33" fill="#D9D9D9"/>
</mask>
<g mask="url(#mask0_579_1387)">
<path d="M16.5783 18.5775L9.47337 26.2213C9.23894 26.4731 8.96199 26.5994 8.64253 26.6001C8.3233 26.6006 8.042 26.4621 7.79862 26.1844C7.56304 25.923 7.45098 25.6355 7.46243 25.3219C7.47389 25.0083 7.59741 24.7127 7.833 24.4351L14.9036 16.8282L7.79862 9.14744C7.57175 8.89564 7.45613 8.61061 7.45178 8.29234C7.44742 7.97384 7.56304 7.67576 7.79862 7.39811C8.042 7.13695 8.32112 7.00428 8.636 7.0001C8.95087 6.99591 9.23 7.12452 9.47337 7.38593L16.5783 15.0294L23.6146 7.38593C23.849 7.13412 24.1259 7.00785 24.4454 7.00711C24.7646 7.00662 25.0459 7.13695 25.2893 7.39811C25.5249 7.67576 25.637 7.9715 25.6255 8.28533C25.614 8.59891 25.4982 8.88628 25.278 9.14744L18.207 16.8282L25.278 24.4351C25.4895 24.6785 25.6032 24.9656 25.619 25.2964C25.6348 25.627 25.5249 25.923 25.2893 26.1844C25.0459 26.4621 24.7668 26.603 24.4519 26.6072C24.1371 26.6111 23.8579 26.4825 23.6146 26.2213L16.5783 18.5775Z" fill="#1F1F1F"/>
</g>
</svg>
