<svg width="30" height="30" viewBox="0 0 30 30" fill="none" xmlns="http://www.w3.org/2000/svg">
<mask id="mask0_962_1724" style="mask-type:alpha" maskUnits="userSpaceOnUse" x="0" y="0" width="30" height="30">
<rect width="30" height="30" transform="matrix(-1 0 0 1 30 0)" fill="#D9D9D9"/>
</mask>
<g mask="url(#mask0_962_1724)">
<path d="M18.4334 22.8781C18.7324 22.8781 18.9849 22.7734 19.1909 22.5641C19.397 22.3547 19.5 22.1047 19.5 21.8141C19.5 21.5234 19.397 21.2761 19.1909 21.0722C18.9849 20.8682 18.7324 20.7662 18.4334 20.7662H5.4625C5.17708 20.7662 4.93146 20.8696 4.72562 21.0763C4.51979 21.2831 4.41687 21.5319 4.41687 21.8225C4.41687 22.1131 4.51979 22.3618 4.72562 22.5684C4.93146 22.7749 5.17708 22.8781 5.4625 22.8781H18.4334ZM18.4334 16.4953C18.7324 16.4953 18.9849 16.3905 19.1909 16.1809C19.397 15.9716 19.5 15.7217 19.5 15.4312C19.5 15.1406 19.397 14.8932 19.1909 14.6891C18.9849 14.4851 18.7324 14.3831 18.4334 14.3831H5.4625C5.17708 14.3831 4.93146 14.4866 4.72562 14.6934C4.51979 14.9003 4.41687 15.1491 4.41687 15.4397C4.41687 15.7301 4.51979 15.9786 4.72562 16.1853C4.93146 16.392 5.17708 16.4953 5.4625 16.4953H18.4334ZM25.9334 10.1122C26.2324 10.1122 26.4849 10.0075 26.6909 9.79812C26.897 9.58875 27 9.33875 27 9.04812C27 8.7575 26.897 8.51021 26.6909 8.30625C26.4849 8.10208 26.2324 8 25.9334 8H5.4625C5.17708 8 4.93146 8.10344 4.72562 8.31031C4.51979 8.51719 4.41687 8.76594 4.41687 9.05656C4.41687 9.34719 4.51979 9.59573 4.72562 9.80219C4.93146 10.0089 5.17708 10.1122 5.4625 10.1122H25.9334Z" fill="#1C1B1F"/>
</g>
</svg>
