<svg width="241" height="30" viewBox="0 0 241 30" fill="none" xmlns="http://www.w3.org/2000/svg">
<g clip-path="url(#clip0_29_22)">
<path d="M172.775 1.32796C174.661 1.32796 176.487 1.32796 178.418 1.32796C181.276 6.75049 184.152 12.2037 187.029 17.6569C187.112 17.6309 187.198 17.605 187.281 17.5814C187.281 12.1942 187.281 6.8071 187.281 1.35627C189.216 1.35627 191.033 1.35627 192.849 1.35627C193.083 2.25019 193.159 26.4334 192.925 28.3463C191.087 28.3463 189.234 28.3463 187.254 28.3463C184.42 22.9709 181.544 17.5201 178.668 12.0669C178.582 12.0928 178.497 12.1211 178.409 12.1471C178.409 17.5319 178.409 22.9167 178.409 28.3651C176.473 28.3651 174.657 28.3651 172.841 28.3651C172.609 27.4759 172.532 3.26205 172.775 1.32796Z" fill="black"/>
<path d="M0.901123 14.7204C1.04516 7.18213 7.29968 0.745387 14.3689 0.860961C21.5147 0.978893 27.6882 7.57838 27.5824 14.9869C27.4766 22.4779 21.1636 28.9713 14.1124 28.8439C6.93733 28.7166 0.761584 22.11 0.901123 14.7204ZM21.8095 14.9326C21.8635 10.7343 18.3773 6.96513 14.3667 6.88494C10.3786 6.8071 6.74377 10.4748 6.65825 14.6614C6.57273 18.8574 10.176 22.7633 14.1709 22.8034C18.123 22.8483 21.7578 19.1004 21.8095 14.9326Z" fill="black"/>
<path d="M102.457 28.3746C102.457 19.3433 102.457 10.4111 102.457 1.39166C102.709 1.35628 102.936 1.2973 103.163 1.2973C105.927 1.29259 108.691 1.28315 111.452 1.30674C113.613 1.32561 115.488 2.04972 117.009 3.74794C119.134 6.11838 119.296 11.1777 116.091 13.4844C115.992 13.5552 115.904 13.6425 115.733 13.7887C116.138 13.9821 116.496 14.1519 116.849 14.3241C119.429 15.5765 120.831 18.0461 120.716 20.9755C120.563 24.8743 118.537 27.0183 116.064 27.8981C115.377 28.141 114.641 28.3486 113.926 28.3557C110.149 28.3981 106.373 28.3746 102.457 28.3746ZM108.216 23.7068C109.607 23.7068 110.903 23.8224 112.175 23.6785C113.784 23.4945 114.828 22.1737 114.864 20.5792C114.9 18.9305 113.856 17.5012 112.224 17.3007C110.921 17.1403 109.584 17.2677 108.216 17.2677C108.216 19.4282 108.216 21.4991 108.216 23.7068ZM108.205 12.2815C109.015 12.2815 109.701 12.3381 110.379 12.2697C111.722 12.1353 112.834 11.0362 113.059 9.70823C113.293 8.32135 112.629 6.90616 111.407 6.34009C110.386 5.866 109.314 5.866 108.205 6.10423C108.205 8.16332 108.205 10.1493 108.205 12.2815Z" fill="black"/>
<path d="M239.225 9.4936C237.312 9.4936 235.534 9.4936 233.772 9.4936C232.915 6.55237 231.774 5.68203 228.861 5.87072C228.071 5.92025 227.266 6.16555 226.523 6.47453C225.722 6.8071 225.244 7.51705 225.193 8.45579C225.139 9.41812 225.6 10.1257 226.397 10.4913C227.32 10.9159 228.287 11.2508 229.255 11.5433C231.047 12.0834 232.863 12.5386 234.652 13.0882C235.307 13.2887 235.933 13.6259 236.543 13.9609C241.197 16.52 240.967 23.3011 237.686 26.2683C235.991 27.8014 233.993 28.568 231.834 28.8722C229.104 29.259 226.415 29.0727 223.82 27.9594C220.428 26.5041 218.225 23.0652 218.488 19.5556C220.361 19.5556 222.24 19.5556 224.119 19.5556C224.182 19.7183 224.245 19.8315 224.268 19.9518C224.743 22.4402 226.169 23.8908 228.555 24.0653C229.629 24.1431 230.732 23.9615 231.805 23.787C232.262 23.7139 232.714 23.4143 233.101 23.1171C234.524 22.0251 234.531 20.0603 233.061 19.0508C232.329 18.5484 231.468 18.2112 230.624 17.9376C229.113 17.4493 227.549 17.1356 226.048 16.6238C224.821 16.2039 223.593 15.711 222.465 15.0624C218.362 12.699 218.313 6.65615 221.439 3.67953C223.167 2.0332 225.217 1.23598 227.493 0.993041C230.304 0.693493 233.011 1.05908 235.483 2.59692C237.916 4.11117 239.014 6.45802 239.225 9.4936Z" fill="black"/>
<path d="M40.6946 28.3628C40.6946 19.2938 40.6946 10.3639 40.6946 1.36807C40.9849 1.33976 41.219 1.29495 41.4508 1.29495C43.8882 1.29259 46.3279 1.26664 48.7654 1.3091C55.7738 1.42467 61.4387 7.50762 61.2226 15.2864C61.0448 21.709 56.8676 26.7188 51.5697 28.0066C50.6671 28.226 49.7286 28.3793 48.8036 28.4005C46.3257 28.4571 43.8477 28.4264 41.3675 28.4264C41.174 28.4241 40.9782 28.3911 40.6946 28.3628ZM46.3639 22.8742C49.6206 23.0983 52.4271 22.4048 54.1579 19.3834C55.8571 16.4139 55.8774 13.2721 54.1489 10.3144C52.3956 7.31185 49.5981 6.60661 46.3639 6.9439C46.3639 12.232 46.3639 17.4847 46.3639 22.8742Z" fill="black"/>
<path d="M195.493 28.3651C195.493 19.3009 195.493 10.3687 195.493 1.44119C199.151 1.25485 202.783 0.86803 206.323 1.71007C212.103 3.08752 215.985 8.444 216.042 14.7652C216.098 21.1406 212.114 26.5726 206.267 28.0396C205.405 28.2566 204.505 28.3793 203.618 28.3981C201.14 28.45 198.662 28.4241 196.182 28.4241C195.984 28.4241 195.786 28.3911 195.493 28.3651ZM201.239 6.93447C201.262 8.50297 201.331 21.6571 201.313 22.886C204.491 23.0959 207.329 22.3624 209.033 19.249C210.674 16.2488 210.654 13.1188 208.869 10.187C207.089 7.25997 204.323 6.61841 201.239 6.93447Z" fill="black"/>
<path d="M81.4198 23.0393C78.0641 23.0393 74.8615 23.0393 71.5665 23.0393C70.9544 24.7989 70.3444 26.549 69.7165 28.358C67.7269 28.358 65.7531 28.358 63.5925 28.358C67.081 19.3362 70.5447 10.3781 74.0287 1.36806C75.6672 1.36806 77.2741 1.36806 78.9531 1.36806C82.4214 10.3356 85.8941 19.3079 89.4006 28.3722C87.2805 28.3722 85.3022 28.3722 83.2743 28.3722C82.6554 26.5938 82.0477 24.8437 81.4198 23.0393ZM79.6913 17.9352C78.6155 14.751 77.5825 11.6989 76.4617 8.37795C75.4039 11.7461 74.2313 14.7463 73.3175 17.9352C75.4894 17.9352 77.497 17.9352 79.6913 17.9352Z" fill="black"/>
<path d="M159.837 1.35627C158.124 1.35627 156.551 1.35627 154.93 1.35627C151.442 10.3592 147.953 19.3622 144.465 28.3628C146.52 28.3628 148.561 28.3628 150.607 28.3628C151.232 26.5631 151.842 24.813 152.454 23.0511C155.774 23.0511 159.011 23.0511 162.312 23.0511C162.945 24.8602 163.566 26.6409 164.158 28.3368C166.26 28.3368 168.222 28.3368 170.28 28.3368C166.762 19.249 163.289 10.2743 159.837 1.35627ZM154.203 17.9352C155.13 14.7463 156.281 11.739 157.359 8.39919C158.473 11.6966 159.503 14.751 160.579 17.9352C158.385 17.9352 156.377 17.9352 154.203 17.9352Z" fill="black"/>
<path d="M142.099 28.3628C139.858 25.3508 137.053 21.485 134.893 18.5815C135.066 18.4447 135.152 18.3385 135.26 18.2984C138.624 17.0507 140.317 14.468 140.621 10.8239C141.073 5.4037 137.314 1.27844 132.669 1.29259C129.743 1.30202 126.817 1.29023 123.892 1.2973C123.626 1.2973 123.358 1.36807 123.086 1.40581C123.086 10.4253 123.086 19.3575 123.086 28.3557C124.99 28.3557 126.833 28.3557 128.776 28.3557C128.776 25.2352 128.776 22.1831 128.776 19.131C128.848 19.1051 128.917 19.0768 128.989 19.0508C130.986 22.1807 132.98 25.313 134.924 28.3628C137.319 28.3628 139.709 28.3628 142.099 28.3628ZM132.379 13.8925C131.274 14.0576 130.128 13.9231 128.848 13.9231C128.848 11.298 128.848 8.71996 128.848 6.00044C130.092 5.99573 131.294 5.83534 132.489 6.1231C134.2 6.5335 135.233 8.09256 135.194 10.1351C135.158 12.1211 134.112 13.633 132.379 13.8925Z" fill="black"/>
</g>
<defs>
<clipPath id="clip0_29_22">
<rect width="241" height="30" fill="white"/>
</clipPath>
</defs>
</svg>
