<svg width="22" height="22" viewBox="0 0 22 22" fill="none" xmlns="http://www.w3.org/2000/svg">
<path d="M17.7531 15.125H13.75C13.6198 15.125 13.511 15.081 13.4237 14.993C13.3363 14.905 13.2923 14.7959 13.2917 14.6657C13.291 14.5356 13.335 14.4268 13.4237 14.3394C13.5123 14.252 13.621 14.2083 13.75 14.2083H17.7531L16.17 12.5895C16.0844 12.5039 16.0447 12.4001 16.0508 12.2778C16.0569 12.1544 16.1043 12.0471 16.1929 11.9561C16.2748 11.8724 16.379 11.8305 16.5055 11.8305C16.632 11.8305 16.7383 11.8733 16.8245 11.9588L18.9961 14.1478C19.0725 14.2248 19.1275 14.3073 19.1611 14.3953C19.1959 14.4827 19.2133 14.5732 19.2133 14.6667C19.2133 14.7602 19.1962 14.8509 19.162 14.9389C19.1278 15.0269 19.0725 15.1088 18.9961 15.1846L16.8071 17.3745C16.7215 17.4601 16.617 17.5007 16.4936 17.4964C16.3701 17.4921 16.2632 17.4445 16.1727 17.3534C16.089 17.2697 16.0472 17.1686 16.0472 17.05C16.0472 16.9314 16.0899 16.8291 16.1755 16.7429L17.7531 15.125ZM3.77299 15.125C3.36538 15.125 3.01674 14.9799 2.72707 14.6896C2.43741 14.3993 2.29227 14.051 2.29166 13.6446V4.68874C2.29166 4.28174 2.4368 3.93341 2.72707 3.64374C3.01735 3.35408 3.36568 3.20894 3.77207 3.20833H15.4779C15.8849 3.20833 16.2332 3.35347 16.5229 3.64374C16.8126 3.93402 16.9577 4.28236 16.9583 4.68874V9.18225C16.9583 9.29775 16.9107 9.40316 16.8153 9.4985C16.72 9.59383 16.6124 9.64119 16.4927 9.64058C16.3643 9.64058 16.2574 9.59688 16.1718 9.5095C16.085 9.42149 16.0417 9.31241 16.0417 9.18225V4.80975L9.53332 9.51958L3.20832 4.81433V13.6446C3.20832 13.809 3.26118 13.944 3.36691 14.0497C3.47263 14.1555 3.60799 14.2083 3.77299 14.2083H11.0156C11.1457 14.2083 11.2548 14.2523 11.3428 14.3403C11.4308 14.4283 11.4745 14.5374 11.4739 14.6676C11.4733 14.7977 11.4296 14.9065 11.3428 14.9939C11.256 15.0813 11.147 15.125 11.0156 15.125H3.77299ZM3.79682 4.12499L9.53332 8.40216L15.4422 4.12499H3.79682Z" fill="white"/>
</svg>
