<svg width="164" height="18" viewBox="0 0 164 18" fill="none" xmlns="http://www.w3.org/2000/svg">
<g clip-path="url(#clip0_343_2936)">
<path d="M13.5425 10.5605L5.64257 2.41083H3.90576V15.5396H6.7548V7.39051L14.6818 15.5396H16.3915V2.41083H13.5425V10.5605Z" fill="black"/>
<path d="M21.4946 15.5889H24.3708V2.41113H21.4946V15.5889Z" fill="black"/>
<path d="M43.0195 2.41108H39.2468L32.3241 7.83634V2.41108H29.4751V15.5398H32.3241V10.9573L34.7953 9.05023L39.9256 15.5398H43.3993L36.9126 7.31565L43.0195 2.41108Z" fill="black"/>
<mask id="mask0_343_2936" style="mask-type:luminance" maskUnits="userSpaceOnUse" x="0" y="-1" width="164" height="19">
<path d="M0 -0.000190735H164V18H0V-0.000190735Z" fill="white"/>
</mask>
<g mask="url(#mask0_343_2936)">
<path d="M55.3831 12.1216C54.5247 12.9307 53.4429 13.3355 52.1394 13.3355C50.8548 13.3355 49.7819 12.9307 48.9229 12.1216C48.0626 11.3126 47.6343 10.2718 47.6343 9.00002C47.6343 7.72884 48.0626 6.68809 48.9229 5.87905C49.7819 5.07 50.8548 4.66516 52.1394 4.66516C53.4429 4.66516 54.5247 5.07 55.3831 5.87905C56.2435 6.68809 56.6736 7.72884 56.6736 9.00002C56.6736 10.2718 56.2435 11.3126 55.3831 12.1216ZM52.1394 2.13808C50.0048 2.13808 48.2305 2.78735 46.8192 4.08335C45.408 5.37999 44.7026 7.01846 44.7026 9.00002C44.7026 10.9816 45.408 12.6207 46.8192 13.9167C48.2305 15.2133 50.0048 15.8613 52.1394 15.8613C54.2741 15.8613 56.0529 15.2133 57.4726 13.9167C58.8948 12.6207 59.604 10.9816 59.604 9.00002C59.604 7.01846 58.8948 5.37999 57.4726 4.08335C56.0529 2.78735 54.2741 2.13808 52.1394 2.13808Z" fill="black"/>
<path d="M73.1504 10.5604L65.2505 2.41071H63.5137V15.5394H66.3627V7.39039L74.2898 15.5394H75.9994V2.41071H73.1504V10.5604Z" fill="black"/>
<path d="M108.286 7.48891C107.996 7.75307 107.517 7.88548 106.848 7.88548H101.637V4.91345H106.63C107.391 4.91345 107.897 4.99557 108.151 5.16043C108.549 5.39213 108.748 5.77979 108.748 6.32531C108.748 6.82054 108.594 7.20883 108.286 7.48891ZM110.864 8.9014C111.407 8.27377 111.681 7.473 111.681 6.49845C111.681 5.22727 111.288 4.23617 110.51 3.52642C109.697 2.78294 108.54 2.4112 107.039 2.4112H98.7861V15.5399H101.637V10.4119H105.762L109.075 15.5399H112.278L108.856 10.1891C109.688 9.9256 110.359 9.49593 110.864 8.9014Z" fill="black"/>
<path d="M125.128 12.1216C124.269 12.9307 123.187 13.3355 121.884 13.3355C120.599 13.3355 119.529 12.9307 118.668 12.1216C117.809 11.3126 117.379 10.2718 117.379 9.00002C117.379 7.72884 117.809 6.68809 118.668 5.87905C119.529 5.07 120.599 4.66516 121.884 4.66516C123.187 4.66516 124.269 5.07 125.128 5.87905C125.988 6.68809 126.418 7.72884 126.418 9.00002C126.418 10.2718 125.988 11.3126 125.128 12.1216ZM121.884 2.13808C119.749 2.13808 117.976 2.78735 116.564 4.08335C115.153 5.37999 114.447 7.01846 114.447 9.00002C114.447 10.9816 115.153 12.6207 116.564 13.9167C117.976 15.2133 119.749 15.8613 121.884 15.8613C124.019 15.8613 125.798 15.2133 127.219 13.9167C128.639 12.6207 129.351 10.9816 129.351 9.00002C129.351 7.01846 128.639 5.37999 127.219 4.08335C125.798 2.78735 124.019 2.13808 121.884 2.13808Z" fill="black"/>
<path d="M142.733 2.41108L138.172 11.3036L133.613 2.41108H130.463L137.277 15.5398H139.068L145.908 2.41108H142.733Z" fill="black"/>
<path d="M149.997 9.79256L151.898 6.27502L153.825 9.79256H149.997ZM152.983 2.4112H150.839L143.782 15.5399H146.93L148.64 12.2948H155.183L156.947 15.5399H160.094L152.983 2.4112Z" fill="black"/>
<path d="M91.1287 9.00042C91.1087 10.2162 90.6914 11.2175 89.8634 11.9979C89.0134 12.7968 87.9457 13.1965 86.6604 13.1965C85.3912 13.1965 84.3313 12.7968 83.482 11.9979C82.6539 11.2175 82.2367 10.2162 82.2167 9.00042H79.3218C79.3424 10.9177 80.0316 12.5103 81.4061 13.7707C82.7993 15.0514 84.5503 15.6918 86.6604 15.6918C88.7686 15.6918 90.5248 15.0514 91.927 13.7707C93.3086 12.5103 94.0029 10.9177 94.0236 9.00042H91.1287Z" fill="black"/>
<path d="M83.6254 9.10205C83.6454 7.88625 84.0626 6.88497 84.8907 6.10457C85.7407 5.3057 86.8083 4.90595 88.0936 4.90595C89.3628 4.90595 90.4227 5.3057 91.2721 6.10457C92.1001 6.88497 92.5174 7.88625 92.5374 9.10205H95.4323C95.4116 7.18478 94.7224 5.59215 93.348 4.33179C91.9548 3.05106 90.2038 2.41134 88.0936 2.41134C85.9855 2.41134 84.2293 3.05106 82.827 4.33179C81.4455 5.59215 80.7511 7.18478 80.7305 9.10205H83.6254Z" fill="black"/>
</g>
</g>
<defs>
<clipPath id="clip0_343_2936">
<rect width="164" height="18" fill="white"/>
</clipPath>
</defs>
</svg>
