<svg width="252" height="95" viewBox="0 0 252 95" fill="none" xmlns="http://www.w3.org/2000/svg">
<g clip-path="url(#clip0_34_22)">
<path fill-rule="evenodd" clip-rule="evenodd" d="M82.459 29.7922C84.4077 25.9711 86.6199 23.7572 90.0761 23.3623C93.9586 22.9184 98.9689 23.0318 105.387 23.0477L81.0134 61.1512L108.75 61.1947L109.601 53.5299C107.618 57.1608 106.245 59.9544 100.168 60.3155C96.4619 60.5364 89.5145 60.3639 85.5921 60.2815L110.109 22.1412C101.658 22.0038 89.8594 22.2252 82.931 22.13L82.459 29.7922Z" fill="#232323"/>
<path fill-rule="evenodd" clip-rule="evenodd" d="M2.7644 22.1345C4.59558 22.3837 6.5682 23.7086 6.61076 25.7445L6.75998 32.8622C6.07407 45.9708 7.29485 55.3968 6.13402 59.6916H10.9346C10.2386 57.6078 10.4558 53.8958 10.1888 51.3028C10.1909 39.0168 10.1361 32.5218 10.3357 28.5878C10.414 27.0428 10.2695 25.8205 10.5791 24.906C10.9707 23.7487 11.4799 23.3836 12.6122 23.042C13.5682 22.7529 15.3042 22.8008 16.8969 22.8044C23.1863 22.768 25.8861 23.656 28.0383 26.3151C31.3802 30.4445 31.3444 37.285 29.6583 42.1094C28.9716 44.0733 27.5699 45.5854 26.462 46.6613C30.0413 45.6971 33.4089 42.061 34.2365 37.5449C34.6008 35.5548 34.4327 32.7297 33.7566 30.7203C32.6887 27.5476 30.0341 24.065 25.4546 22.8552C23.0213 22.2125 20.0892 22.1308 16.5125 22.1292C13.601 22.1279 10.2848 22.1548 6.55886 22.1254C6.11222 22.122 3.22635 22.0954 2.7644 22.1345Z" fill="#232323"/>
<path fill-rule="evenodd" clip-rule="evenodd" d="M143.431 25.316C143.258 25.5681 142.23 26.5805 142.072 26.8513C139.547 31.1756 130.2 57.7498 124.503 60.8554C124.304 60.9642 123.193 61.1377 123.003 61.1872L131.503 61.1806C129.736 59.2126 130.185 56.5098 130.977 54.5517C131.427 53.4404 131.753 52.3744 131.816 52.1798L153.203 52.2368C153.348 52.7754 156.465 57.6364 154.738 60.9207C154.691 61.0097 154.64 61.0977 154.586 61.1843L164.729 61.195C164.666 61.1573 163.911 61.1286 163.85 61.0912C160.314 58.9228 159.477 56.6152 157.524 52.1913L144.364 22.5351L142.525 25.7372C142.018 26.8454 141.759 27.8437 141.29 29.0202C142.71 29.3595 140.444 28.5022 142.378 27.7456L152.893 51.5744L132.088 51.5122L143.431 25.316Z" fill="#232323"/>
<path fill-rule="evenodd" clip-rule="evenodd" d="M54.5161 22.1009C56.7194 22.9738 56.7067 23.4346 57.1621 24.5896C57.4489 25.3176 57.5574 26.203 57.6467 27.1277C57.8257 28.9812 57.7655 31.1379 57.7655 33.51L57.7891 44.1234C57.8 48.9847 57.9581 53.5957 57.8019 57.5245C57.6106 59.5165 55.3631 61.063 53.9812 61.1861L64.4217 61.1744C62.0354 60.6965 61.0936 59.3469 60.8951 57.6179C60.6854 55.7925 60.7184 53.7625 60.7184 50.8982C60.7184 47.4684 60.6927 42.3576 60.6966 37.4096C60.6999 32.5582 60.8113 28.6438 61.1479 25.8143C61.2478 24.9731 61.6853 23.9922 62.2454 23.2454C62.6622 22.6899 63.5827 22.2635 64.0483 22.1207L54.5161 22.1009Z" fill="#232323"/>
<path fill-rule="evenodd" clip-rule="evenodd" d="M216.125 32.5179C216.125 28.5147 215.676 23.3396 220.489 22.1058L214.165 22.1103L209.505 31.4754C211.146 29.0426 210.677 28.1848 212.987 26.4335C213.033 32.6902 212.942 39.6667 212.949 45.9242C212.953 50.3192 213.448 56.1599 212.572 59.1111L216.77 59.0987C215.82 55.7308 216.111 48.0702 216.125 44.5049C216.143 40.1333 216.123 35.6279 216.125 32.5179Z" fill="#232323"/>
<path fill-rule="evenodd" clip-rule="evenodd" d="M201.714 46.1352L200.749 47.3172L200.442 46.8575C200.324 46.4984 188.787 28.208 185.772 22.136L178.581 22.1292C180.037 22.283 181.385 22.9119 182.286 24.0772C182.831 24.7831 183.288 25.9912 183.288 26.5394C183.288 27.9912 183.64 38.0942 183.288 43.5929C183.231 44.5023 183.288 45.4743 183.288 46.398C183.288 53.5104 184.385 60.5942 178.394 61.1091C178.355 61.1122 178.39 61.1846 178.39 61.1846L187.604 61.1879L189.873 61.1851C189.87 61.1617 189.857 61.0893 189.7 61.0815C189.603 61.0766 189.345 61.0628 189.204 61.0537C188.029 60.9749 184.529 59.9927 184.452 53.2893C184.434 51.7594 184.446 49.7729 184.452 47.6248C184.468 41.5364 184.411 33.3987 184.481 27.7612C186.066 30.0868 188.049 33.58 190.207 37.1752C193.617 42.8558 197.37 48.8445 199.242 51.7294L200.774 48.8206L201.714 46.1352Z" fill="#232323"/>
<path fill-rule="evenodd" clip-rule="evenodd" d="M11.3813 47.07C14.725 46.6777 16.0187 46.1672 24.4477 54.6849C28.8777 59.1611 30.9445 62.638 38.5789 60.4789C32.9888 59.8532 30.5885 56.4875 28.3478 54.5301C26.1073 52.5727 21.4053 47.9601 21.3742 47.9328C19.9847 46.7165 23.6162 48.4051 23.2254 47.5475C20.2762 46.7773 17.771 45.9726 15.4934 45.9193C14.1517 45.8878 12.3751 46.1779 11.3813 47.07Z" fill="#232323"/>
<path fill-rule="evenodd" clip-rule="evenodd" d="M201.714 46.1352L202.553 45.1847C202.653 45.0471 202.804 44.8415 202.908 44.6873L201.714 46.1352Z" fill="#232323"/>
<path fill-rule="evenodd" clip-rule="evenodd" d="M134.368 46.2447L134.823 43.5292L143.967 22.1152L144.175 22.1175L147.93 30.5722L142.378 27.7456L134.368 46.2447Z" fill="#232323"/>
<path fill-rule="evenodd" clip-rule="evenodd" d="M214.165 22.1102L210.983 28.0487L200.192 47.8719L199.824 49.3651L199.494 51.1659L214.094 24.4064L214.165 22.1102Z" fill="#232323"/>
<path fill-rule="evenodd" clip-rule="evenodd" d="M19.3793 46.5596C20.3014 46.8023 22.0461 47.2665 23.522 47.1905C24.9979 47.1148 26.2049 46.4994 27.1701 45.6682C28.1353 44.8374 28.858 43.7904 29.3594 42.9289C29.8608 42.0675 30.1403 41.3907 30.6435 40.996C31.1467 40.6016 31.8729 40.4889 32.3024 40.5298C32.7324 40.5706 32.8655 40.7655 32.9128 40.9508C32.96 41.1365 32.9211 41.3124 32.6758 41.6972C32.4308 42.0823 31.979 42.676 31.5259 43.1964C31.0728 43.7165 30.6183 44.1627 30.1691 44.5915C29.7199 45.0203 29.2764 45.4319 28.8072 45.7982C28.3382 46.1648 27.8443 46.4865 27.3427 46.7927C26.841 47.0992 26.3316 47.3903 25.6475 47.6123C24.9637 47.8345 24.1054 47.9872 22.8919 47.9544C21.6786 47.9216 20.1104 47.7028 19.0959 47.4346C18.0817 47.1663 17.621 46.8481 17.5735 46.6465C17.5261 46.4448 17.8912 46.3595 18.1237 46.3275C18.3565 46.2955 18.4569 46.3171 19.3793 46.5596Z" fill="#232323"/>
<path d="M184.452 26.5394H183.288V58.8658H184.452V26.5394Z" fill="#232323"/>
<path d="M216.125 25.8733H212.986V58.1997H216.125V25.8733Z" fill="#232323"/>
<path d="M10.3353 25.7443H6.61035V57.2464H10.3353V25.7443Z" fill="#232323"/>
<path fill-rule="evenodd" clip-rule="evenodd" d="M20.1865 89.815C20.4039 88.7816 22.3156 86.3296 22.3747 87.3058C22.5434 90.0643 19.6031 92.5782 20.1865 89.815ZM91.2767 90.2378C90.8911 89.8213 92.0784 88.0473 93.0233 87.1229C93.9765 86.1904 95.9403 84.9581 96.4868 85.5959C97.0331 86.2338 91.6624 90.6549 91.2767 90.2378ZM81.2647 87.4856C81.0845 87.1237 83.6945 84.1045 84.7033 85.1057C85.3443 85.7418 81.4749 87.9079 81.2647 87.4856ZM51.1385 87.8902C51.0951 87.8621 51.0149 87.7726 51.0404 87.6878C51.2755 86.909 54.3443 84.3858 55.016 85.1062C55.7579 85.9029 51.6443 88.2178 51.1385 87.8902ZM12.1732 77.6649C12.6995 76.3463 17.4348 70.119 18.8904 69.385C18.1658 71.0494 17.113 72.1545 16.066 73.4559L12.1732 77.6649ZM5.05744 90.006C4.5371 90.005 7.14919 85.7983 8.28277 83.9242C10.6836 79.9556 9.78747 81.7316 12.4852 78.9744C14.1555 77.2676 21.325 69.1259 20.0082 68.2584C18.5286 67.2833 15.41 71.3461 14.1796 72.8447C12.9752 74.3114 0.717217 90.8131 3.1619 92.6055C5.0019 93.2099 9.46202 86.4404 10.1713 86.7651C10.8806 87.0893 10.3849 90.6182 12.9806 91.1357C15.4165 91.6215 18.7438 89.1781 18.8395 89.3717C18.8338 90.1595 18.9602 91.035 19.6664 91.4123C22.4072 92.5933 23.4585 87.1023 23.5065 86.3585C24.734 84.2903 30.7876 81.0614 32.0271 82.4346C33.2668 83.8084 27.2657 90.0791 27.7686 90.8162C27.9734 91.1162 28.5352 91.2812 29.0779 91.0155C29.8687 90.6289 30.8206 89.5096 32.235 88.0645C33.2549 87.0227 36.4911 83.2644 37.136 84.0525C37.4656 84.4547 35.0534 87.4968 36.0743 89.0496C37.8178 90.5407 40.0551 87.5207 42.1043 87.0813C42.177 92.382 45.6138 90.8079 48.8661 88.9093C49.1017 88.786 49.0454 90.1579 49.2985 90.8685C51.023 95.7186 58.8743 90.365 60.8552 88.8146C60.6507 89.5665 60.5427 91.0689 60.9008 91.3886C62.2768 92.8389 64.7039 89.8666 65.9908 88.6533C64.9963 96.169 70.9882 90.3409 72.9909 87.2306C73.0778 87.3945 73.355 87.6992 73.4868 87.8353C74.0668 88.4337 74.9438 88.7386 76.0615 88.8872C76.9646 89.0071 77.8974 88.8844 78.8384 88.7933C78.6723 96.8374 87.6722 90.765 89.356 89.7984C89.2901 90.8399 89.6316 91.5388 91.3574 91.3452C93.2649 91.1313 96.2504 87.9469 97.1543 86.3972C98.2762 90.5001 99.8144 91.5845 105.877 88.6515C105.302 90.185 104.602 90.8839 105.695 91.6077C106.788 92.331 112.083 85.2202 112.552 85.5568C113.021 85.8935 115.572 89.6214 120.689 86.8523C118.718 87.4109 117.188 87.5272 115.535 86.94C114.126 86.4396 113.609 84.0962 112.734 84.0644C111.86 84.0332 109.62 87.7245 107.598 89.1573L109.298 85.1377C106.067 84.1118 108.861 87.0407 103.359 89.164C99.1781 90.7777 99.2313 88.0564 98.4431 85.0911C98.2046 84.4503 97.4642 85.2496 97.2636 85.0079C96.4022 83.9687 94.2677 84.6915 93.2895 85.1457C91.6154 85.9232 90.9406 86.8736 89.9337 88.1969C88.4523 90.1452 78.3277 96.0191 80.6888 88.5378C81.5159 88.8042 86.8122 86.3535 85.4048 84.7172C83.4566 82.4523 79.3359 85.9128 78.8903 88.3013C77.5602 88.4587 75.7968 88.6679 74.7611 87.7619C73.3516 86.5294 74.1499 84.6478 73.7777 84.3223C72.6249 84.0103 73.0129 84.9589 72.4744 86.4024C72.0288 88.5276 67.4742 92.3677 67.2542 91.1068C66.9373 89.2882 68.0047 87.2696 67.1548 87.0227C65.6291 86.8476 63.1005 91.5643 62.1818 90.92C61.7477 90.6161 62.5748 88.4072 63.3632 87.5205C63.4021 87.4768 65.3887 85.1054 64.7983 84.5419C63.5051 83.8227 62.3588 86.4995 61.5403 87.6172C61.0117 88.339 49.6037 96.1713 50.9054 88.8599C50.7897 88.9926 58.1058 86.4813 55.5192 84.2335C54.1123 83.0109 51.8355 84.2778 50.1938 86.308C49.7908 86.8062 49.395 87.489 49.2798 87.7575C49.1482 88.065 48.6691 88.4051 48.4036 88.6036C47.0515 89.6136 45.5253 90.3029 43.7419 90.0003L43.3188 86.4961C43.0611 84.3597 38.103 88.6785 37.264 88.5219C36.3876 88.3588 39.4403 83.8909 38.4243 83.1296C36.5365 81.7149 32.5713 86.6291 30.9031 87.9539C31.4834 86.4495 33.8936 83.6721 33.0044 82.0756C30.662 79.7206 24.0987 84.4531 22.744 85.5113C22.6068 85.6185 21.9468 85.4509 21.0538 85.9424C20.3925 86.3062 19.6355 87.6891 19.3373 87.9958C19.0191 88.3231 18.5704 88.6343 17.9722 88.9572C10.9431 93.5016 12.3131 86.4519 10.8284 85.645C9.27518 84.8 6.23151 89.4325 5.05744 90.006Z" fill="#232323"/>
<path fill-rule="evenodd" clip-rule="evenodd" d="M141.102 87.7528C141.154 87.8407 141.254 87.9357 141.225 88.0372C141.004 88.8065 140.6 91.0691 141.01 91.4042C142.516 92.6346 145.083 90.363 146.307 89.1453C146.419 95.5167 150.562 89.6464 151.544 87.631C152.44 85.7895 152.646 85.3024 154.522 84.5315C156.007 83.9216 158.946 83.1798 159.587 83.7199C160.761 84.7079 155.941 89.0092 157.37 91.6569C158.277 92.867 160.212 92.3841 161.579 91.915C162.718 91.5244 163.818 90.8958 164.737 90.4194C164.41 91.4922 163.688 92.5946 164.374 93.0452C166.468 94.132 172.763 84.6995 173.73 84.9301C174.697 85.1608 172.652 87.7583 173.227 89.9576C174.757 91.6223 178.538 86.7095 179.644 87.1039C180.133 87.2782 180.211 91.0324 181.095 91.2781C182.027 91.8273 184.318 90.9632 185.769 90.1161C186.259 89.8301 188.442 87.9784 188.719 87.7513L189.738 86.3312L186.455 88.971C185.211 89.673 182.471 91.0571 182.061 90.7147C180.554 89.4536 182.26 83.8061 177.354 87.2218C176.35 87.9209 175.081 88.9229 174.81 88.8976C174.281 88.8482 174.888 87.2048 175.052 86.1888C175.829 81.3642 172.272 84.4937 170.369 86.6397C169.596 87.5111 167.459 89.7549 166.733 90.3089C167.668 88.0728 170.773 84.8853 169.702 84.2892C168.632 83.6931 167.102 87.4208 165.433 89.0587C164.753 89.7253 157.21 93.6699 158.561 90.44C159.503 88.1842 162.9 83.1103 158.737 83.0562C156.858 83.0315 153.849 83.7993 152.42 84.9855C150.341 86.7118 150.637 89.8512 147.403 91.3022L147.954 87.1C146.895 87.0847 146.64 87.2587 146.326 87.6222C146.03 87.9659 145.666 88.4818 145.013 89.0985C144.217 89.8504 142.7 91.1529 142.3 90.9606C141.364 90.5105 143.912 86.9468 144.375 86.1589C145.016 85.0656 144.514 83.448 142.783 85.8951C142.19 86.7342 141.727 87.2314 141.102 87.7528Z" fill="#232323"/>
<path fill-rule="evenodd" clip-rule="evenodd" d="M141.046 87.6321L134.215 90.4973C133.228 85.2769 133.188 85.6302 134.463 84.8981C134.814 84.6959 135.132 84.776 135.682 84.1266C133.701 83.2888 131.669 85.0266 132.133 87.2887C132.603 89.5848 133.572 90.4103 131.394 91.4888L130.254 91.8234C131.405 92.6815 132.448 92.4632 133.564 91.7279C134.505 91.1074 134.915 90.7416 136.096 90.2516C140.337 88.1761 140.405 88.9002 141.046 87.6321Z" fill="#232323"/>
<path fill-rule="evenodd" clip-rule="evenodd" d="M161.571 81.7555C162.698 81.2857 162.934 80.9714 163.535 80.0805C164.37 78.8441 164.256 77.8567 163.193 77.8465C162.213 77.8374 162.966 80.0134 161.571 81.7555Z" fill="#232323"/>
<path fill-rule="evenodd" clip-rule="evenodd" d="M213.868 51.9243C213.887 56.7718 213.333 60.6749 208.96 61.0513C208.92 61.0545 208.956 61.1268 208.956 61.1268L218.17 61.1302L220.439 61.1273C220.435 61.1039 220.422 61.0316 220.266 61.0238C220.169 61.0188 219.91 61.005 219.769 60.9957C218.977 60.9426 217.471 60.6593 216.319 58.3017C216.166 57.9898 216.02 57.6416 215.882 57.2529C215.518 56.2233 215.214 54.9092 215.017 53.2315C214.97 52.8277 214.947 52.3895 214.94 51.9243H213.868Z" fill="#232323"/>
<path fill-rule="evenodd" clip-rule="evenodd" d="M212.724 58.5104C212.662 58.667 212.577 58.935 212.453 59.1653C212.329 59.3958 212.166 59.5881 212.02 59.7405C211.874 59.893 211.744 60.0057 211.815 60.0889C211.887 60.1722 212.161 60.2266 212.464 60.058C212.767 59.8899 213.1 59.4991 213.259 59.1991C213.418 58.8993 213.403 58.6899 213.352 58.5382C213.301 58.3871 213.215 58.2936 213.127 58.2575C213.04 58.2218 212.951 58.2437 212.888 58.2767C212.824 58.31 212.786 58.3543 212.724 58.5104Z" fill="#232323"/>
<path fill-rule="evenodd" clip-rule="evenodd" d="M216.511 57.7795C216.609 58.0748 216.782 58.7201 216.988 59.1728C217.195 59.6258 217.435 59.8868 217.469 60.0361C217.504 60.1852 217.333 60.2229 216.842 60.1004C216.351 59.9778 215.539 59.6947 215.205 59.2558C214.871 58.8171 215.015 58.2223 215.288 57.9192C215.562 57.6161 215.965 57.6044 216.178 57.5714C216.391 57.5383 216.414 57.4842 216.511 57.7795Z" fill="#232323"/>
<path fill-rule="evenodd" clip-rule="evenodd" d="M58.4826 51.9813C58.5021 56.8288 57.9483 60.7318 53.5746 61.108C53.5349 61.1114 53.5704 61.1838 53.5704 61.1838L62.7844 61.1871L65.0537 61.1843C65.0503 61.1606 65.0373 61.0883 64.8806 61.0805C64.7835 61.0755 64.5248 61.062 64.3841 61.0526C63.5921 60.9995 62.0858 60.7162 60.9335 58.3587C60.7812 58.0467 60.6348 57.6983 60.4973 57.3099C60.1332 56.2803 59.8288 54.9659 59.632 53.2882C59.5848 52.8846 59.562 52.4465 59.5545 51.9813H58.4826Z" fill="#232323"/>
<path fill-rule="evenodd" clip-rule="evenodd" d="M58.3421 31.2932C58.3533 28.4905 58.1729 26.0031 57.1733 24.3309C56.4443 23.1112 55.2788 22.3249 53.4341 22.1662C53.3946 22.1631 53.4299 22.0908 53.4299 22.0908L62.644 22.0874L64.9132 22.0902C64.9098 22.1136 64.8966 22.186 64.7401 22.1938C64.643 22.1987 64.3843 22.2125 64.2434 22.2219C63.4516 22.275 61.9453 22.5583 60.7931 24.9158C60.6407 25.2278 60.4943 25.5759 60.3568 25.9646C59.9927 26.9942 59.6883 28.3084 59.4916 29.9861C59.4443 30.3899 59.4215 30.828 59.414 31.2932H58.3421Z" fill="#232323"/>
<path fill-rule="evenodd" clip-rule="evenodd" d="M56.4755 23.4422C56.5707 23.5538 56.7394 23.7432 56.8765 23.975C57.0135 24.2071 57.1191 24.4818 57.1959 24.6941C57.273 24.9062 57.3213 25.0561 57.3991 25.0795C57.477 25.1029 57.5842 24.9996 57.6586 24.7314C57.7331 24.4634 57.7747 24.0307 57.7012 23.7448C57.6275 23.4588 57.4388 23.3201 57.2273 23.2449C57.0158 23.1697 56.7812 23.158 56.6289 23.1718C56.4768 23.1853 56.407 23.2239 56.3828 23.2603C56.3587 23.2967 56.3805 23.3305 56.4755 23.4422Z" fill="#232323"/>
<path fill-rule="evenodd" clip-rule="evenodd" d="M7.64507 51.994C7.65752 55.1079 7.43304 57.9296 6.11182 59.5792C5.37659 60.4974 4.30089 60.9871 2.73675 61.1211C2.69783 61.1242 2.73286 61.1965 2.73286 61.1965L11.9469 61.1999L14.2161 61.197C14.2128 61.1736 14.1995 61.1013 14.0428 61.0932C13.946 61.0883 13.6872 61.0748 13.5463 61.0654C12.7545 61.0123 11.2482 60.729 10.096 58.3714C9.94364 58.0595 9.79727 57.7114 9.65972 57.3226C9.29561 56.2931 8.9912 54.9789 8.79448 53.3012C8.74725 52.8974 8.72442 52.4592 8.71689 51.994H7.64507Z" fill="#232323"/>
<path fill-rule="evenodd" clip-rule="evenodd" d="M127.173 58.1719C125.919 59.7353 125.242 60.9564 122.248 61.113C122.209 61.1151 122.244 61.1887 122.244 61.1887L131.458 61.1921L133.727 61.1892C133.724 61.1656 133.711 61.0932 133.554 61.0854C133.457 61.0805 133.198 61.067 133.057 61.0576C132.273 61.005 130.786 60.7261 129.638 58.4269L127.173 58.1719Z" fill="#232323"/>
<path fill-rule="evenodd" clip-rule="evenodd" d="M130.465 59.2688C130.515 59.3188 130.544 59.4262 130.605 59.5753C130.666 59.7249 130.757 59.9167 130.883 60.0756C131.01 60.2351 131.171 60.3624 131.332 60.4703C131.493 60.5786 131.653 60.6676 131.55 60.7074C131.447 60.7472 131.082 60.7381 130.729 60.6832C130.377 60.6288 130.037 60.5286 129.915 60.3296C129.794 60.1311 129.89 59.8337 129.987 59.6346C130.084 59.4356 130.182 59.3349 130.264 59.2805C130.347 59.2267 130.416 59.2191 130.465 59.2688Z" fill="#232323"/>
<path fill-rule="evenodd" clip-rule="evenodd" d="M158.725 58.1797C157.471 59.7431 156.794 60.9642 153.8 61.1211C153.76 61.1229 153.796 61.1965 153.796 61.1965L163.01 61.1999L165.279 61.197C165.275 61.1736 165.262 61.1013 165.106 61.0932C165.009 61.0883 164.749 61.0748 164.609 61.0654C163.824 61.0136 162.691 60.7347 160.682 58.327L158.725 58.1797Z" fill="#232323"/>
<path fill-rule="evenodd" clip-rule="evenodd" d="M6.3462 58.4552C6.26575 58.75 6.11625 59.2501 5.94108 59.5888C5.76642 59.9276 5.56607 60.1056 5.38622 60.2422C5.20664 60.379 5.04755 60.4748 5.1581 60.5182C5.26892 60.5622 5.6499 60.5541 6.02958 60.3561C6.40926 60.1581 6.78816 59.7705 6.9719 59.3091C7.15538 58.8478 7.14396 58.3129 7.07234 58.0223C7.00071 57.7316 6.86965 57.6848 6.75572 57.7189C6.64179 57.7527 6.54577 57.8675 6.49179 57.9695C6.43806 58.0714 6.42665 58.1607 6.3462 58.4552Z" fill="#232323"/>
<path fill-rule="evenodd" clip-rule="evenodd" d="M11.6009 60.3002C11.3819 60.0954 11.1252 59.7876 10.9597 59.4637C10.7941 59.1395 10.7193 58.7994 10.6589 58.444C10.5987 58.0886 10.553 57.7176 10.4253 57.5825C10.2979 57.4478 10.0887 57.5492 9.95506 57.9195C9.82166 58.29 9.76327 58.93 9.81958 59.3992C9.87564 59.8683 10.0459 60.1672 10.3298 60.3863C10.6145 60.6054 11.0129 60.7448 11.2682 60.7953C11.5233 60.846 11.6357 60.807 11.7644 60.7773C11.8929 60.7479 12.0377 60.7277 12.0195 60.6668C12.0016 60.6061 11.8202 60.5049 11.6009 60.3002Z" fill="#232323"/>
<path fill-rule="evenodd" clip-rule="evenodd" d="M152.827 1.44066C152.814 2.25946 153.148 4.01934 148.183 8.32722C145.574 10.5914 143.599 11.5959 144.493 15.8661C145.047 12.9525 147.182 11.7895 148.334 10.633C150.348 8.61083 153.056 6.79734 153.37 3.72274C153.445 2.98824 153.277 2.01931 152.827 1.44066Z" fill="#232323"/>
<path fill-rule="evenodd" clip-rule="evenodd" d="M237.994 22.122C240.197 22.9949 240.184 23.4551 240.64 24.6104C241.502 26.7975 241.243 29.9754 241.243 33.5308C241.243 36.678 241.251 40.4858 241.267 44.1445C241.287 49.0058 241.633 53.87 241.279 57.5454C241.088 59.5373 238.841 61.0841 237.459 61.2069L247.899 61.1952C245.513 60.7173 244.761 59.3352 244.373 57.639C244.004 56.0269 244.196 53.7833 244.196 50.9192C244.196 47.4895 244.17 42.3784 244.174 37.4305C244.177 32.5793 244.289 28.6648 244.625 25.8351C244.725 24.9942 245.163 24.013 245.723 23.2663C246.14 22.7108 247.06 22.2846 247.526 22.1417L237.994 22.122Z" fill="#232323"/>
<path fill-rule="evenodd" clip-rule="evenodd" d="M241.96 52.0021C241.98 56.8496 241.426 60.7527 237.052 61.1291C237.012 61.1323 237.048 61.2046 237.048 61.2046L246.262 61.208L248.531 61.2051C248.528 61.1817 248.515 61.1094 248.358 61.1016C248.261 61.0966 248.002 61.0828 247.862 61.0737C247.07 61.0204 245.563 60.737 244.411 58.3795C244.259 58.0675 244.112 57.7194 243.975 57.3307C243.611 56.3014 243.306 54.987 243.109 53.3093C243.062 52.9055 243.039 52.4673 243.032 52.0021H241.96Z" fill="#232323"/>
<path fill-rule="evenodd" clip-rule="evenodd" d="M241.82 31.3143C241.831 28.5113 241.65 26.0242 240.651 24.352C239.922 23.1323 238.756 22.3457 236.912 22.1873C236.872 22.1839 236.907 22.1118 236.907 22.1118L246.121 22.1082L248.391 22.111C248.387 22.1347 248.374 22.207 248.218 22.2148C248.121 22.2198 247.862 22.2333 247.721 22.2427C246.929 22.2958 245.423 22.5794 244.271 24.9369C244.118 25.2486 243.972 25.597 243.834 25.9855C243.47 27.015 243.166 28.3294 242.969 30.0071C242.922 30.4107 242.899 30.8491 242.891 31.3143H241.82Z" fill="#232323"/>
<path fill-rule="evenodd" clip-rule="evenodd" d="M239.953 23.463C240.048 23.5748 240.217 23.7642 240.354 23.9958C240.491 24.2279 240.597 24.5027 240.673 24.715C240.75 24.9273 240.799 25.0771 240.877 25.1003C240.954 25.1237 241.062 25.0204 241.136 24.7524C241.211 24.4844 241.252 24.0518 241.179 23.7656C241.105 23.4799 240.916 23.3409 240.705 23.2657C240.493 23.1905 240.259 23.1788 240.106 23.1926C239.954 23.2061 239.884 23.2449 239.86 23.2811C239.836 23.3175 239.858 23.3513 239.953 23.463Z" fill="#232323"/>
<path fill-rule="evenodd" clip-rule="evenodd" d="M158.906 58.1758C160.16 59.7395 160.836 60.9603 163.831 61.1172C163.87 61.1193 163.835 61.1926 163.835 61.1926L154.621 61.1963L152.351 61.1932C152.355 61.1697 152.368 61.0974 152.525 61.0896C152.622 61.0846 152.881 61.0711 153.021 61.0618C153.57 61.0248 154.462 60.877 155.342 60.0051C155.719 59.6305 156.095 59.1221 156.44 58.4308L158.906 58.1758Z" fill="#232323"/>
<path fill-rule="evenodd" clip-rule="evenodd" d="M155.215 59.5506C155.142 59.7044 155.092 59.9378 154.984 60.1282C154.877 60.3192 154.714 60.467 154.574 60.5695C154.434 60.6723 154.319 60.7303 154.395 60.7602C154.471 60.7901 154.739 60.792 155.008 60.6941C155.278 60.5963 155.548 60.398 155.672 60.1477C155.796 59.8977 155.774 59.5949 155.716 59.4367C155.659 59.2787 155.568 59.2649 155.475 59.2946C155.382 59.3245 155.287 59.3974 155.215 59.5506Z" fill="#232323"/>
<path d="M60.9332 26.5987H57.6464V58.3584H60.9332V26.5987Z" fill="#232323"/>
<path fill-rule="evenodd" clip-rule="evenodd" d="M57.6817 56.188C57.6467 56.5863 57.6467 57.1998 57.4876 57.8251C57.3285 58.4503 57.0104 59.0867 56.7797 59.4707C56.5495 59.855 56.4062 59.9872 56.2964 60.0855C56.1866 60.1844 56.1103 60.2497 56.1501 60.3247C56.1898 60.3999 56.3457 60.4847 56.6938 60.4974C57.0415 60.5102 57.5816 60.4514 58.0508 60.1373C58.5203 59.8238 58.9191 59.255 59.0733 58.5525C59.2277 57.85 59.1371 57.0133 58.8934 56.47C58.65 55.9267 58.2535 55.6765 58.0204 55.6424C57.7871 55.6083 57.7168 55.7901 57.6817 56.188Z" fill="#232323"/>
<path fill-rule="evenodd" clip-rule="evenodd" d="M60.8992 56.1125C60.9903 56.5582 61.0471 57.5745 61.2729 58.3514C61.499 59.1283 61.8937 59.6666 62.1379 59.9705C62.3821 60.2749 62.475 60.3457 62.5744 60.4212C62.6738 60.4964 62.7789 60.5765 62.3647 60.5422C61.9505 60.5081 61.0165 60.3598 60.4669 59.9224C59.9169 59.4853 59.7516 58.7591 59.8033 58.112C59.8552 57.4652 60.124 56.898 60.286 56.5452C60.4482 56.1924 60.5037 56.054 60.5935 55.9223C60.6836 55.7912 60.8086 55.6668 60.8992 56.1125Z" fill="#232323"/>
<path fill-rule="evenodd" clip-rule="evenodd" d="M237.994 22.122C240.197 22.9949 240.184 23.4554 240.64 24.6104C240.926 25.3384 241.035 26.2238 241.124 27.1485C241.303 29.0023 241.243 31.1587 241.243 33.5308L241.267 44.1445C241.278 49.0056 241.436 53.6168 241.279 57.5454C241.088 59.5373 238.841 61.0841 237.459 61.2069L247.899 61.1952C245.513 60.7173 244.571 59.3677 244.373 57.639C244.163 55.8133 244.196 53.7833 244.196 50.9192C244.196 47.4895 244.17 42.3784 244.174 37.4305C244.177 32.5793 244.289 28.6648 244.625 25.8351C244.725 24.9942 245.163 24.013 245.723 23.2663C246.14 22.7108 247.06 22.2846 247.526 22.1417L237.994 22.122Z" fill="#232323"/>
<path fill-rule="evenodd" clip-rule="evenodd" d="M241.96 52.0021C241.98 56.8496 241.426 60.7527 237.052 61.1291C237.012 61.1323 237.048 61.2046 237.048 61.2046L246.262 61.208L248.531 61.2051C248.528 61.1817 248.515 61.1094 248.358 61.1016C248.261 61.0966 248.002 61.0828 247.862 61.0737C247.07 61.0204 245.563 60.737 244.411 58.3795C244.259 58.0675 244.112 57.7194 243.975 57.3307C243.611 56.3014 243.306 54.987 243.109 53.3093C243.062 52.9055 243.039 52.4673 243.032 52.0021H241.96Z" fill="#232323"/>
<path fill-rule="evenodd" clip-rule="evenodd" d="M241.82 31.3143C241.831 28.5113 241.65 26.0242 240.651 24.352C239.922 23.1323 238.756 22.3457 236.912 22.1873C236.872 22.1839 236.907 22.1118 236.907 22.1118L246.121 22.1082L248.391 22.111C248.387 22.1347 248.374 22.207 248.218 22.2148C248.121 22.2198 247.862 22.2333 247.721 22.2427C246.929 22.2958 245.423 22.5794 244.271 24.9369C244.118 25.2486 243.972 25.597 243.834 25.9855C243.47 27.015 243.166 28.3294 242.969 30.0071C242.922 30.4107 242.899 30.8491 242.891 31.3143H241.82Z" fill="#232323"/>
<path fill-rule="evenodd" clip-rule="evenodd" d="M239.953 23.463C240.048 23.5748 240.217 23.7642 240.354 23.9958C240.491 24.2279 240.597 24.5027 240.673 24.715C240.75 24.9273 240.799 25.0771 240.877 25.1003C240.954 25.1237 241.062 25.0204 241.136 24.7524C241.211 24.4844 241.252 24.0518 241.179 23.7656C241.105 23.4799 240.916 23.3409 240.705 23.2657C240.493 23.1905 240.259 23.1788 240.106 23.1926C239.954 23.2061 239.884 23.2449 239.86 23.2811C239.836 23.3175 239.858 23.3513 239.953 23.463Z" fill="#232323"/>
<path d="M244.411 26.6198H241.124V58.3795H244.411V26.6198Z" fill="#232323"/>
<path fill-rule="evenodd" clip-rule="evenodd" d="M241.159 56.209C241.124 56.6071 241.124 57.2206 240.965 57.8461C240.806 58.4713 240.488 59.1075 240.257 59.4918C240.027 59.8761 239.884 60.008 239.774 60.1066C239.664 60.2052 239.588 60.2705 239.627 60.3455C239.667 60.4207 239.823 60.5055 240.171 60.5182C240.519 60.5312 241.059 60.4722 241.528 60.1581C241.998 59.8446 242.397 59.2761 242.551 58.5736C242.705 57.8711 242.615 57.0343 242.371 56.4908C242.127 55.9475 241.731 55.6973 241.498 55.6632C241.265 55.6293 241.194 55.8112 241.159 56.209Z" fill="#232323"/>
<path fill-rule="evenodd" clip-rule="evenodd" d="M244.377 56.1333C244.468 56.5793 244.525 57.5953 244.75 58.3722C244.977 59.1494 245.371 59.6874 245.615 59.9916C245.86 60.2958 245.953 60.3668 246.052 60.442C246.151 60.5172 246.256 60.5973 245.842 60.563C245.428 60.5291 244.494 60.3806 243.944 59.9432C243.394 59.5063 243.229 58.7799 243.281 58.1328C243.333 57.4863 243.602 56.9191 243.764 56.5663C243.926 56.2132 243.981 56.0748 244.071 55.9431C244.161 55.812 244.286 55.6876 244.377 56.1333Z" fill="#232323"/>
<path fill-rule="evenodd" clip-rule="evenodd" d="M143.414 23.5938L140.748 29.7826L131.592 50.4967L131.44 51.9738L130.658 55.2797L143.538 25.8879L143.414 23.5938Z" fill="#232323"/>
<path fill-rule="evenodd" clip-rule="evenodd" d="M43.5965 88.7993C43.622 89.0074 43.6661 89.3714 43.8797 89.6209C44.0933 89.871 44.4766 90.0068 44.9756 89.9977C45.4747 89.9888 46.0898 89.8359 46.5457 89.6907C47.0022 89.5452 47.3002 89.4081 47.1063 89.5059C46.9122 89.6043 46.2265 89.9379 45.5842 90.1343C44.9422 90.3307 44.3427 90.3895 43.9331 90.364C43.5241 90.3385 43.3048 90.2285 43.1873 90.0084C43.0697 89.7885 43.0541 89.4591 43.0855 89.2057C43.1169 88.9525 43.1951 88.7756 43.282 88.6684C43.3687 88.5615 43.4637 88.5243 43.5145 88.5315C43.5654 88.5388 43.5716 88.5911 43.5965 88.7993Z" fill="#232323"/>
<path fill-rule="evenodd" clip-rule="evenodd" d="M40.9154 87.5532C41.0836 87.497 41.3514 87.3625 41.5683 87.3454C41.7856 87.3282 41.9524 87.4276 42.0542 87.6409C42.1559 87.8543 42.193 88.1808 42.2701 88.2799C42.3477 88.3793 42.4658 88.2508 42.5652 87.9836C42.6651 87.7161 42.7461 87.3094 42.7505 87.0451C42.7549 86.7808 42.683 86.6593 42.4396 86.5958C42.1964 86.5325 41.7814 86.5279 41.4547 86.5999C41.1282 86.6723 40.8897 86.8216 40.7478 86.9639C40.6058 87.1062 40.5606 87.2418 40.5539 87.3412C40.5471 87.4406 40.5785 87.5038 40.6286 87.546C40.6785 87.5886 40.7475 87.6097 40.9154 87.5532Z" fill="#232323"/>
<path fill-rule="evenodd" clip-rule="evenodd" d="M108.754 85.0302C108.909 85.0217 109.144 85.0711 109.277 85.1265C109.41 85.1822 109.441 85.2449 109.191 85.8821C108.942 86.5198 108.412 87.7323 108.103 88.4215C107.795 89.1105 107.708 89.2762 107.567 89.3816C107.426 89.4872 107.231 89.5327 107.195 89.2189C107.159 88.9052 107.281 88.2318 107.449 87.6472C107.617 87.0628 107.83 86.5674 108.005 86.1693C108.179 85.7712 108.315 85.471 108.42 85.2881C108.525 85.1049 108.599 85.0386 108.754 85.0302Z" fill="#232323"/>
<path fill-rule="evenodd" clip-rule="evenodd" d="M188.849 87.5595C189.668 86.442 190.814 83.765 192.107 84.4841C192.698 85.0477 190.711 87.4192 190.672 87.4627C189.884 88.3494 189.057 90.5584 189.491 90.8623C190.409 91.5062 192.938 86.7899 194.464 86.9652C195.314 87.2119 194.246 89.2304 194.563 91.0491C194.783 92.31 199.338 88.4699 199.784 86.3447C200.322 84.9014 199.934 83.9525 201.087 84.2645C201.459 84.5897 200.66 86.4714 202.07 87.7041C203.106 88.6101 204.869 88.4012 206.199 88.2435C206.363 86.5299 210.344 82.4323 212.714 84.6595C213.753 86.8198 209.417 88.6421 207.998 88.48C205.637 95.9614 215.761 90.0872 217.243 88.1394C218.25 86.8161 218.924 85.8654 220.599 85.088C221.577 84.6337 223.711 83.9109 224.573 84.9501C224.773 85.1918 225.513 84.3925 225.752 85.0334C226.54 87.9987 226.487 90.72 230.668 89.1063C236.169 86.9829 233.376 84.054 236.607 85.0797L234.907 89.0995C236.929 87.6667 239.169 83.9754 240.043 84.0069C240.918 84.0384 241.435 86.3819 242.844 86.8822C244.497 87.4695 246.027 87.3532 247.998 86.7943C242.676 89.9394 240.469 85.6115 239.861 85.4991C239.253 85.3867 234.097 92.2732 233.004 91.5497C231.911 90.8261 232.611 90.1272 233.186 88.5934C226.661 91.3191 225.585 90.4423 224.463 86.3398C223.813 87.4544 222.579 88.6078 221.464 89.7599C220.959 90.2823 219.643 91.1779 218.666 91.2874C216.941 91.481 216.599 90.7824 216.665 89.7403C214.981 90.7072 205.981 96.7797 206.147 88.7355C205.206 88.8266 204.274 88.9494 203.371 88.8292C202.253 88.6809 201.376 88.376 200.796 87.7775C200.664 87.6414 200.387 87.337 200.3 87.1731C198.297 90.2834 192.305 96.1115 193.3 88.5958C192.013 89.8088 189.586 92.7811 188.21 91.3309C187.653 90.3583 188.148 88.5178 188.849 87.5595ZM218.586 90.1803C218.2 89.7635 219.387 87.9896 220.332 87.0651C221.285 86.1326 223.249 84.9004 223.796 85.5381C224.342 86.1761 218.971 90.5969 218.586 90.1803ZM208.574 87.4281C208.393 87.0659 211.003 84.0467 212.012 85.0479C212.653 85.6841 208.784 87.8501 208.574 87.4281Z" fill="#232323"/>
<path fill-rule="evenodd" clip-rule="evenodd" d="M235.672 84.877C235.827 84.8684 236.257 84.9655 236.488 85.0448C236.719 85.1247 236.75 85.1871 236.501 85.8243C236.251 86.462 235.721 87.6745 235.412 88.3638C235.104 89.0527 235.017 89.2184 234.876 89.3238C234.736 89.4295 234.54 89.475 234.504 89.1612C234.468 88.8474 234.59 88.1741 234.758 87.5894C234.926 87.005 235.139 86.5097 235.313 86.1116C235.488 85.7135 235.625 85.4132 235.632 85.2064C235.639 84.9993 235.517 84.8853 235.672 84.877Z" fill="#232323"/>
<path fill-rule="evenodd" clip-rule="evenodd" d="M146.045 87.954C146.123 87.8072 146.497 87.3854 146.82 87.1559C147.143 86.9262 147.417 86.889 147.627 86.9364C147.837 86.984 147.983 87.1164 148.064 87.221C148.146 87.3253 148.163 87.4021 148.109 87.7486C148.056 88.0955 147.93 88.7124 147.811 89.2666C147.693 89.8208 147.58 90.3123 147.518 90.6008C147.457 90.8896 147.445 90.9752 147.53 91.0132C147.614 91.0517 147.795 91.0423 147.94 90.9986C148.084 90.9552 148.193 90.8771 148.217 90.8998C148.241 90.9227 148.179 91.046 148.034 91.1719C147.889 91.2981 147.659 91.4269 147.494 91.4599C147.329 91.493 147.228 91.4305 147.135 91.1709C147.041 90.9112 146.953 90.4546 146.863 90.005C146.773 89.5556 146.679 89.1131 146.6 88.754C146.522 88.3952 146.46 88.1199 146.321 88.0463C146.182 87.9729 145.966 88.1007 146.045 87.954Z" fill="#232323"/>
<path fill-rule="evenodd" clip-rule="evenodd" d="M142.207 86.6798C141.985 86.8666 141.654 87.2153 140.912 87.6222C140.172 88.0289 139.022 88.4936 138.308 88.7967C137.594 89.1001 137.316 89.2421 137.156 89.353C136.995 89.4641 136.951 89.5447 136.908 89.634C136.866 89.7235 136.825 89.8218 137.57 89.5674C138.315 89.3132 139.846 88.7056 140.746 88.2727C141.646 87.84 141.915 87.5814 142.126 87.3516C142.337 87.1221 142.489 86.9213 142.567 86.7743C142.645 86.6278 142.649 86.5354 142.595 86.5016C142.541 86.4678 142.429 86.493 142.207 86.6798Z" fill="#232323"/>
<path d="M126.372 88.772C126.948 88.772 127.415 88.304 127.415 87.7268C127.415 87.1496 126.948 86.6816 126.372 86.6816C125.797 86.6816 125.33 87.1496 125.33 87.7268C125.33 88.304 125.797 88.772 126.372 88.772Z" fill="#232323"/>
<path fill-rule="evenodd" clip-rule="evenodd" d="M132.256 90.9638C132.123 91.0335 131.945 91.1613 131.661 91.2627C131.377 91.3645 130.987 91.4404 130.721 91.5127C130.455 91.5853 130.314 91.6546 130.237 91.7477C130.16 91.8414 130.147 91.9595 130.4 92.0953C130.654 92.2314 131.173 92.3859 131.668 92.3732C132.163 92.3604 132.635 92.1809 132.987 92.0183C133.34 91.8557 133.574 91.7102 133.666 91.5502C133.759 91.3902 133.71 91.2156 133.503 91.0998C133.297 90.984 132.932 90.9271 132.705 90.9044C132.479 90.8823 132.39 90.894 132.256 90.9638Z" fill="#232323"/>
<path fill-rule="evenodd" clip-rule="evenodd" d="M134.306 85.0131C134.521 84.923 134.889 84.7771 135.152 84.6428C135.415 84.5086 135.573 84.3855 135.655 84.2814C135.738 84.1771 135.746 84.0918 135.682 84.0101C135.618 83.9286 135.482 83.8508 135.258 83.8066C135.034 83.7626 134.722 83.7519 134.349 83.848C133.976 83.9445 133.543 84.1477 133.268 84.3366C132.993 84.5255 132.875 84.7006 132.824 84.91C132.773 85.12 132.787 85.3651 132.944 85.414C133.101 85.4629 133.399 85.3159 133.594 85.2426C133.788 85.1697 133.878 85.1702 133.954 85.1536C134.03 85.1369 134.091 85.1028 134.306 85.0131Z" fill="#232323"/>
<path fill-rule="evenodd" clip-rule="evenodd" d="M133.6 86.787C133.788 87.412 134.088 88.7207 134.25 89.5122C134.413 90.3031 134.44 90.5766 134.302 90.8597C134.165 91.1428 133.864 91.4355 133.617 91.6301C133.371 91.8247 133.179 91.9215 133.099 91.5864C133.019 91.2512 133.051 90.4842 133.079 89.7718C133.108 89.0594 133.134 88.4017 133.163 87.8288C133.193 87.2559 133.225 86.7675 133.28 86.494C133.335 86.2203 133.412 86.1618 133.6 86.787Z" fill="#232323"/>
</g>
<defs>
<clipPath id="clip0_34_22">
<rect width="252" height="95" fill="white"/>
</clipPath>
</defs>
</svg>
