<svg id="Слой_1" data-name="Слой 1" xmlns="http://www.w3.org/2000/svg" viewBox="0 0 203.26 203.77"><defs><style>.cls-1{fill:#1d1d1b;}</style></defs><path class="cls-1" d="M93.26,118.56h.68v5h-.73v-3.92l-1.55,2h-.13l-1.57-2v3.92h-.72v-5h.68l1.68,2.06Z"/><path class="cls-1" d="M96.53,120.27a1.7,1.7,0,0,1,1.26.49,1.61,1.61,0,0,1,.5,1.23,1.56,1.56,0,0,1-.5,1.19,1.84,1.84,0,0,1-1.28.47,1.73,1.73,0,0,1-1.25-.48,1.57,1.57,0,0,1-.5-1.2,1.61,1.61,0,0,1,.5-1.22A1.78,1.78,0,0,1,96.53,120.27Zm0,.59a1,1,0,0,0-.78.31,1.09,1.09,0,0,0-.3.79,1,1,0,0,0,.31.78,1.1,1.1,0,0,0,.8.3,1.1,1.1,0,0,0,.78-1.87A1.12,1.12,0,0,0,96.5,120.86Z"/><path class="cls-1" d="M98.88,123.36v-.71a3.5,3.5,0,0,0,.56.32,1.38,1.38,0,0,0,.49.12.69.69,0,0,0,.36-.1.29.29,0,0,0,.14-.25.36.36,0,0,0-.09-.24,2.34,2.34,0,0,0-.41-.27,3.06,3.06,0,0,1-.84-.61.85.85,0,0,1-.19-.54.77.77,0,0,1,.3-.63,1.15,1.15,0,0,1,.76-.24,2,2,0,0,1,1,.28v.64a2.06,2.06,0,0,0-.95-.35.57.57,0,0,0-.31.08.26.26,0,0,0-.12.22.33.33,0,0,0,.11.22,1.76,1.76,0,0,0,.37.25l.23.13c.56.32.83.66.83,1a.81.81,0,0,1-.32.67,1.26,1.26,0,0,1-.82.26,2.06,2.06,0,0,1-.52-.06A3.27,3.27,0,0,1,98.88,123.36Z"/><path class="cls-1" d="M104.39,122.82v.65a2.86,2.86,0,0,1-1,.18,1.65,1.65,0,0,1-1.24-.46,1.67,1.67,0,0,1-.47-1.24,1.77,1.77,0,0,1,.45-1.26,1.56,1.56,0,0,1,1.19-.48,2.16,2.16,0,0,1,.46.05,2.58,2.58,0,0,1,.5.18v.7a1.76,1.76,0,0,0-.92-.32.94.94,0,0,0-.73.32,1.11,1.11,0,0,0-.28.79,1.09,1.09,0,0,0,.3.81,1.17,1.17,0,0,0,.84.3A2.14,2.14,0,0,0,104.39,122.82Z"/><path class="cls-1" d="M106.73,120.27a1.7,1.7,0,0,1,1.26.49,1.61,1.61,0,0,1,.5,1.23,1.56,1.56,0,0,1-.5,1.19,1.84,1.84,0,0,1-1.28.47,1.73,1.73,0,0,1-1.25-.48,1.57,1.57,0,0,1-.5-1.2,1.61,1.61,0,0,1,.5-1.22A1.78,1.78,0,0,1,106.73,120.27Zm0,.59a1,1,0,0,0-.78.31,1.09,1.09,0,0,0-.3.79,1,1,0,0,0,.31.78,1.1,1.1,0,0,0,.8.3,1.1,1.1,0,0,0,.78-1.87A1.12,1.12,0,0,0,106.7,120.86Z"/><path class="cls-1" d="M113.31,120.28H114l-1.47,3.37h-.21l-1-2.31-1,2.31h-.21l-1.48-3.37h.71l.87,2,.84-2h.49l.84,2Z"/><path class="cls-1" d="M50.13,80.12h5.92v27.6H50.13Z"/><path class="cls-1" d="M99.31,103.42,113.5,85H99.31V80.12H120.6v4.29l-14.2,18.42H121v4.89H99.31Z"/><path class="cls-1" d="M66.88,103.42,81.08,85H66.88V80.12h21.3v4.29L74,102.83H88.57v4.89H66.88Z"/><path class="cls-1" d="M131.83,80.12h5.91v22.71h12.62v4.89H131.83Z"/><path class="cls-1" d="M161.2,80.12h19.32V85H167.15v6.15h12.19v4.73H167.15v6.94h13.37v4.89H161.2Z"/><path class="cls-1" d="M32.6,97A8.07,8.07,0,0,0,37,94a8.45,8.45,0,0,0,1.48-5,9.49,9.49,0,0,0-.67-3.65,7.58,7.58,0,0,0-2-2.8,9,9,0,0,0-3.25-1.79,14.91,14.91,0,0,0-4.56-.63H22.74V85h4.14a12.36,12.36,0,0,1,2.74.25,4.72,4.72,0,0,1,1.75.75,2.62,2.62,0,0,1,.95,1.24,5.55,5.55,0,0,1,0,3.48A2.67,2.67,0,0,1,31.37,92a4.72,4.72,0,0,1-1.75.75,12.36,12.36,0,0,1-2.74.25H22.74v4.66h3.9l5.8,10.09H39.3Z"/></svg>