<svg width="21" height="22" viewBox="0 0 21 22" fill="none" xmlns="http://www.w3.org/2000/svg">
<mask id="mask0_575_3698" style="mask-type:alpha" maskUnits="userSpaceOnUse" x="0" y="-1" width="21" height="22">
<rect y="-0.25" width="20.5" height="20.5" fill="#D9D9D9"/>
</mask>
<g mask="url(#mask0_575_3698)">
<path d="M8.34386 13.5908C6.78302 13.5908 5.4681 13.0564 4.39911 11.9876C3.32998 10.9188 2.79541 9.61261 2.79541 8.06885C2.79541 6.52523 3.32983 5.21899 4.39868 4.15014C5.46739 3.0813 6.77227 2.54688 8.31333 2.54688C9.85439 2.54688 11.1615 3.0813 12.2348 4.15014C13.3081 5.21899 13.8447 6.5253 13.8447 8.06906C13.8447 8.68549 13.7482 9.28226 13.5553 9.8594C13.3624 10.4365 13.0799 10.9563 12.7076 11.4187L17.7273 16.4156C17.8682 16.5522 17.9401 16.7247 17.9428 16.933C17.9455 17.1411 17.8737 17.3151 17.7273 17.4549C17.581 17.5947 17.4081 17.6646 17.2088 17.6646C17.0095 17.6646 16.8374 17.5914 16.6925 17.445L11.7082 12.4608C11.2732 12.8242 10.7543 13.1034 10.1515 13.2983C9.54859 13.4933 8.94605 13.5908 8.34386 13.5908ZM8.32165 12.1475C9.47108 12.1475 10.4384 11.7549 11.2237 10.9698C12.0088 10.1845 12.4014 9.21756 12.4014 8.06885C12.4014 6.92014 12.0092 5.95322 11.225 5.1681C10.4406 4.38284 9.47321 3.9902 8.32294 3.9902C7.16782 3.9902 6.19834 4.38284 5.4145 5.1681C4.63066 5.95322 4.23874 6.92014 4.23874 8.06885C4.23874 9.21756 4.63066 10.1845 5.4145 10.9698C6.19834 11.7549 7.16739 12.1475 8.32165 12.1475Z" fill="#C7C7C7"/>
</g>
</svg>
