<svg width="30" height="30" viewBox="0 0 30 30" fill="none" xmlns="http://www.w3.org/2000/svg">
<mask id="mask0_962_1728" style="mask-type:alpha" maskUnits="userSpaceOnUse" x="0" y="0" width="30" height="30">
<rect width="30" height="30" fill="#D9D9D9"/>
</mask>
<g mask="url(#mask0_962_1728)">
<path d="M12.2105 20.2544C9.92637 20.2544 8.0021 19.4723 6.43773 17.9082C4.87314 16.3442 4.09085 14.4326 4.09085 12.1735C4.09085 9.91451 4.87293 8.00294 6.4371 6.43878C8.00106 4.87461 9.91064 4.09253 12.1659 4.09253C14.4211 4.09253 16.334 4.87461 17.9046 6.43878C19.4752 8.00294 20.2605 9.91461 20.2605 12.1738C20.2605 13.0759 20.1194 13.9492 19.8371 14.7938C19.5548 15.6384 19.1413 16.399 18.5965 17.0757L25.9424 24.3882C26.1487 24.5882 26.2538 24.8405 26.2577 25.1453C26.2617 25.4499 26.1566 25.7045 25.9424 25.9091C25.7282 26.1137 25.4753 26.216 25.1837 26.216C24.892 26.216 24.6401 26.1089 24.428 25.8947L17.134 18.6007C16.4973 19.1325 15.7379 19.5411 14.8559 19.8263C13.9736 20.1117 13.0918 20.2544 12.2105 20.2544ZM12.178 18.1422C13.8601 18.1422 15.2757 17.5677 16.4249 16.4188C17.5739 15.2696 18.1484 13.8545 18.1484 12.1735C18.1484 10.4924 17.5745 9.07743 16.4268 7.92847C15.2789 6.7793 13.8632 6.20472 12.1799 6.20472C10.4895 6.20472 9.07075 6.7793 7.92366 7.92847C6.77658 9.07743 6.20304 10.4924 6.20304 12.1735C6.20304 13.8545 6.77658 15.2696 7.92366 16.4188C9.07075 17.5677 10.4889 18.1422 12.178 18.1422Z" fill="#1C1B1F"/>
</g>
</svg>
