<svg width="30" height="30" viewBox="0 0 30 30" fill="none" xmlns="http://www.w3.org/2000/svg">
<mask id="mask0_962_1737" style="mask-type:alpha" maskUnits="userSpaceOnUse" x="0" y="0" width="30" height="30">
<rect width="30" height="30" fill="#D9D9D9"/>
</mask>
<g mask="url(#mask0_962_1737)">
<path d="M7.95143 27.8099C7.27393 27.8099 6.68841 27.5632 6.19487 27.0696C5.70133 26.5761 5.45456 25.9906 5.45456 25.3131V10.3484C5.45456 9.67108 5.70133 9.08566 6.19487 8.59212C6.68841 8.09858 7.27393 7.85181 7.95143 7.85181H10.7005V7.38712C10.7005 6.06754 11.1657 4.96097 12.0961 4.06743C13.0265 3.17368 14.1594 2.72681 15.4946 2.72681C16.8296 2.72681 17.9663 3.17368 18.9049 4.06743C19.8434 4.96097 20.3127 6.06754 20.3127 7.38712V7.85181H23.0408C23.7183 7.85181 24.3038 8.09858 24.7974 8.59212C25.2909 9.08566 25.5377 9.67108 25.5377 10.3484V25.3131C25.5377 25.9906 25.2909 26.5761 24.7974 27.0696C24.3038 27.5632 23.7183 27.8099 23.0408 27.8099H7.95143ZM7.95143 25.6977H23.0408C23.1371 25.6977 23.2253 25.6577 23.3055 25.5777C23.3855 25.4975 23.4255 25.4093 23.4255 25.3131V10.3484C23.4255 10.2523 23.3855 10.1642 23.3055 10.084C23.2253 10.004 23.1371 9.96399 23.0408 9.96399H20.3127V12.6474C20.3127 12.9466 20.2075 13.1992 19.9971 13.4052C19.7866 13.6111 19.5351 13.714 19.2424 13.714C18.9555 13.714 18.7102 13.6111 18.5064 13.4052C18.3025 13.1992 18.2005 12.9466 18.2005 12.6474V9.96399H12.8127V12.6474C12.8127 12.9466 12.7075 13.1992 12.4971 13.4052C12.2866 13.6111 12.0351 13.714 11.7424 13.714C11.4555 13.714 11.2102 13.6111 11.0064 13.4052C10.8025 13.1992 10.7005 12.9466 10.7005 12.6474V9.96399H7.95143C7.85518 9.96399 7.76696 10.004 7.68675 10.084C7.60675 10.1642 7.56675 10.2523 7.56675 10.3484V25.3131C7.56675 25.4093 7.60675 25.4975 7.68675 25.5777C7.76696 25.6577 7.85518 25.6977 7.95143 25.6977ZM12.8127 7.85181H18.2005V7.38712C18.2005 6.65941 17.9363 6.05274 17.408 5.56712C16.8797 5.0817 16.2419 4.83899 15.4946 4.83899C14.7473 4.83899 14.1134 5.0817 13.593 5.56712C13.0728 6.05274 12.8127 6.65941 12.8127 7.38712V7.85181Z" fill="#1C1B1F"/>
</g>
</svg>
