<svg width="26" height="26" viewBox="0 0 26 26" fill="none" xmlns="http://www.w3.org/2000/svg">
<mask id="mask0_1042_2339" style="mask-type:alpha" maskUnits="userSpaceOnUse" x="0" y="0" width="26" height="26">
<rect width="26" height="26" fill="#D9D9D9"/>
</mask>
<g mask="url(#mask0_1042_2339)">
<path d="M12.9728 20.9198V19.8004H19.9333C20.1499 19.8004 20.3485 19.7101 20.5291 19.5296C20.7096 19.349 20.7999 19.1504 20.7999 18.9337V5.06708C20.7999 4.85041 20.7096 4.6518 20.5291 4.47124C20.3485 4.29069 20.1499 4.20041 19.9333 4.20041H12.9728V3.08105H19.9333C20.4852 3.08105 20.9542 3.27407 21.3402 3.6601C21.7263 4.04612 21.9193 4.51512 21.9193 5.06708V18.9337C21.9193 19.4857 21.7263 19.9547 21.3402 20.3407C20.9542 20.7268 20.4852 20.9198 19.9333 20.9198H12.9728ZM12.1514 15.9364L11.2937 15.1239L13.8755 12.5421H4.08057V11.4227H13.8755L11.2937 8.8406L12.1333 8.04624L16.0874 12.0093L12.1514 15.9364Z" fill="#1F1F1F"/>
</g>
</svg>
