<svg width="138" height="18" viewBox="0 0 138 18" fill="none" xmlns="http://www.w3.org/2000/svg">
<path d="M40.044 17.1512C40.5741 17.1536 41.1047 17.108 41.628 17.0208L46.6545 11.9883C46.7687 11.3535 46.8301 10.7105 46.8277 10.0646V1.11155H44.0576V10.2041C44.0576 13.1168 42.533 14.6053 40.0919 14.6053C37.6463 14.6053 36.1082 13.0393 36.1082 10.0898V1.11155H33.3376V10.2041C33.3376 14.7788 35.9481 17.1512 40.044 17.1512Z" fill="#2B2B2A"/>
<path d="M93.6597 9.01398C93.6597 12.1127 91.4768 14.6333 88.3314 14.6333C85.3422 14.5965 82.9484 12.1466 82.9832 9.15402C82.9832 9.1012 83.0016 9.04839 83.0016 9.01398C83.0016 5.89783 85.1864 3.37672 88.3314 3.37672C91.3007 3.41306 93.696 5.86343 93.6597 8.8565V9.01398ZM88.697 0.839607H88.3498C87.5797 0.839607 86.8116 0.945238 86.0779 1.13712L80.3796 6.84368C80.1875 7.54192 80.101 8.27892 80.101 9.01398C80.0139 13.4428 83.525 17.0997 87.9454 17.1729H88.313C89.1179 17.1729 89.9203 17.0672 90.7068 16.8569L96.2653 11.2875C96.4709 10.5369 96.5758 9.76552 96.5623 8.99605C96.6494 4.56968 93.1204 0.908413 88.697 0.839607Z" fill="#2B2B2A"/>
<path d="M12.4329 12.4062C12.4329 9.7455 10.6979 8.54769 7.36337 7.73946C4.31856 7.01602 3.62398 6.47332 3.62398 5.26195C3.62398 4.17655 4.57008 3.34797 6.19285 3.34797C7.75661 3.40515 9.25797 3.97546 10.4691 4.97122L11.9918 2.87359C10.3825 1.54786 8.35058 0.840418 6.2683 0.884027C5.83637 0.884027 5.40686 0.920855 4.97928 0.998383L0.899372 5.08605V5.46837C0.899372 8.41928 2.7872 9.41552 6.14496 10.2034C9.07514 10.9036 9.70152 11.5131 9.70152 12.6378C9.70152 13.7571 8.62725 14.6637 6.89951 14.6637C5.03877 14.6453 3.2559 13.9102 1.9185 12.6121L0.252197 14.5653C2.05345 16.2002 4.39885 17.1024 6.83035 17.0884C7.44995 17.0932 8.06955 17.0244 8.6732 16.8824L12.3937 13.1548C12.4261 12.9077 12.4397 12.6557 12.4329 12.4062Z" fill="#2B2B2A"/>
<path d="M21.0668 3.68303H16.0659V1.11151H28.8541V3.68303H23.8533V16.8972H21.0668V3.68303Z" fill="#2B2B2A"/>
<path d="M109.374 14.7093L114.8 10.0886C116.962 8.25896 117.755 7.24286 117.755 5.82506C117.812 4.52259 116.807 3.41394 115.504 3.35676C115.406 3.3524 115.306 3.35434 115.205 3.36112C113.767 3.36112 112.769 4.12623 111.559 5.73397L109.603 4.2086C111.125 2.08821 112.592 0.890398 115.41 0.890398C118.493 0.890398 120.61 2.79129 120.61 5.65111C120.61 8.12862 119.278 9.46356 116.515 11.7511L113.271 14.4598H120.768V16.8917H109.351L109.374 14.7093Z" fill="#2B2B2A"/>
<path d="M131.191 9.03199C129.182 9.03199 127.977 7.85744 127.977 6.17896C127.94 4.56928 129.218 3.25469 130.825 3.22077C130.912 3.22077 131.017 3.22077 131.104 3.2387V3.22077C133.097 3.22077 134.388 4.49853 134.388 6.14213C134.388 7.78863 133.202 9.03199 131.191 9.03199ZM135.454 2.43289C134.285 1.29468 132.695 0.715641 131.085 0.839203C127.593 0.839203 125.215 3.20236 125.215 6.30009C125.215 9.38038 127.433 11.3428 130.788 11.3428C132.203 11.3927 133.568 10.7652 134.475 9.6779C134.388 12.5857 132.955 14.6489 130.667 14.6489C129.323 14.6145 128.029 14.0718 127.067 13.11L125.547 15.2439C126.946 16.4694 128.747 17.154 130.596 17.1356C131.175 17.1356 131.75 17.0484 132.309 16.9064L136.749 12.4621C137.167 11.2008 137.376 9.86978 137.36 8.53969C137.36 5.37266 136.589 3.64185 135.454 2.43289Z" fill="#2B2B2A"/>
<path d="M63.8165 9.01399C63.8165 12.1466 61.652 14.3518 58.3465 14.3518H55.2016L55.2383 3.67424H58.3465C61.1969 3.50029 63.6429 5.67108 63.8165 8.52411V9.01399ZM58.2783 1.11921H52.4407V16.8889H58.3126C59.0827 16.8889 59.8324 16.8017 60.5661 16.6277L66.4908 10.677C66.5958 10.1343 66.6461 9.57268 66.6461 9.01399C66.6461 4.51494 63.2221 1.11921 58.2783 1.11921Z" fill="#2B2B2A"/>
<path d="M72.0098 1.1119H74.7798V16.9H72.0098V1.1119Z" fill="#2B2B2A"/>
</svg>
