<svg width="25" height="24" viewBox="0 0 25 24" fill="none" xmlns="http://www.w3.org/2000/svg">
<g clip-path="url(#clip0_962_709)">
<path fill-rule="evenodd" clip-rule="evenodd" d="M19.277 3.42997C19.5241 3.32596 19.7946 3.29008 20.0603 3.32608C20.326 3.36208 20.5772 3.46863 20.7877 3.63465C20.9982 3.80067 21.1604 4.02008 21.2574 4.27005C21.3543 4.52002 21.3825 4.79141 21.339 5.05597L19.071 18.813C18.851 20.14 17.395 20.901 16.178 20.24C15.16 19.687 13.648 18.835 12.288 17.946C11.608 17.501 9.52502 16.076 9.78102 15.062C10.001 14.195 13.501 10.937 15.501 8.99997C16.286 8.23897 15.928 7.79997 15.001 8.49997C12.699 10.238 9.00302 12.881 7.78102 13.625C6.70302 14.281 6.14102 14.393 5.46902 14.281C4.24302 14.077 3.10602 13.761 2.17802 13.376C0.92402 12.856 0.98502 11.132 2.17702 10.63L19.277 3.42997Z" fill="white"/>
</g>
<defs>
<clipPath id="clip0_962_709">
<rect width="24" height="24" fill="white" transform="translate(0.5)"/>
</clipPath>
</defs>
</svg>
