<svg width="185" height="24" viewBox="0 0 185 24" fill="none" xmlns="http://www.w3.org/2000/svg">
<path d="M178.673 1.5289C177.568 2.09779 177.247 4.23112 178.138 5.12001C179.457 6.43556 181.881 5.40445 181.881 3.52001C181.881 2.45334 181.56 1.99112 180.562 1.45779C179.635 0.995564 179.778 0.995564 178.673 1.5289ZM181.311 2.56001C181.917 3.55556 181.168 5.12001 179.992 5.26223C179.421 5.33334 178.744 5.19112 178.459 4.94223C177.853 4.44445 177.817 2.77334 178.388 2.20445C178.994 1.60001 180.847 1.81334 181.311 2.56001Z" fill="black"/>
<path d="M178.994 2.20442C178.994 2.27553 178.958 2.84442 178.922 3.48442C178.851 4.6222 179.172 5.04886 179.493 4.15998C179.6 3.83998 179.742 3.83998 180.134 4.15998C180.562 4.51553 180.633 4.44442 180.633 3.76886C180.562 2.73775 180.17 2.13331 179.528 2.13331C179.243 2.13331 179.029 2.16886 178.994 2.20442ZM180.241 2.80886C180.348 2.98664 180.206 3.19998 179.921 3.3422C179.6 3.44886 179.386 3.3422 179.386 3.0222C179.386 2.45331 179.956 2.31109 180.241 2.80886Z" fill="black"/>
<path d="M2.79817 4.16002C3.26156 5.51113 5.07948 10.24 6.79046 14.7556L9.89161 22.9333H11.3174H12.7076L16.6999 12.4445C20.3714 2.77335 20.6209 1.95557 19.9436 1.8489C19.5515 1.77779 19.1238 1.92002 18.9812 2.13335C18.8386 2.38224 17.2346 6.89779 15.4167 12.1956C13.5987 17.5289 12.0303 21.9378 11.9591 22.0089C11.7095 22.3289 11.3887 21.5111 8.03805 11.8045L4.58044 1.77779H3.22591H1.87138L2.79817 4.16002Z" fill="black"/>
<path d="M22.1893 12.4444V23.1111H29.8531C34.7365 23.1111 37.5169 22.9689 37.5169 22.7555C37.5169 22.5422 35.093 22.4 30.9224 22.4H24.328V17.6V12.8H30.2095C33.881 12.8 36.091 12.6578 36.091 12.4444C36.091 12.2311 33.881 12.0889 30.2095 12.0889H24.328V7.28886V2.48886H30.9224C35.093 2.48886 37.5169 2.34664 37.5169 2.13331C37.5169 1.91997 34.7365 1.77775 29.8531 1.77775H22.1893V12.4444Z" fill="black"/>
<path d="M38.9427 12.4089V23.1111H40.0121H41.0814V17.7778V12.4444H42.9706C48.3174 12.4444 50.9196 15.04 51.6325 21.0844C51.8463 23.1466 51.882 23.1466 52.987 23.04C54.092 22.9333 54.092 22.9333 53.9494 21.1555C53.6999 17.6 52.2384 14.8978 49.7076 13.2622C48.2105 12.3378 48.1749 12.2666 48.9591 12.0533C54.3415 10.6311 55.803 5.61775 51.6325 3.02219C49.8858 1.99108 49.7789 1.95553 44.3964 1.84886L38.9427 1.70664V12.4089ZM50.3849 3.80442C52.488 5.90219 51.6325 9.31553 48.567 10.9155C47.2124 11.6266 46.5708 11.7333 44.1113 11.6622L41.2596 11.5555L41.1527 7.00442L41.0458 2.41775L45.1806 2.55997C49.2442 2.66664 49.2799 2.66664 50.3849 3.80442Z" fill="black"/>
<path d="M59.0824 12.1244C56.7298 17.8489 54.7336 22.6489 54.6623 22.8266C54.591 23.0044 54.9831 23.1111 55.5535 23.04C56.4446 22.9333 56.6585 22.6133 57.9417 19.0933L59.3675 15.2533L64.3936 15.36L69.4196 15.4666L70.8454 19.2711L72.2712 23.1111H73.7683H75.2654L72.8059 17.1378C71.4514 13.8666 69.4909 9.10219 68.4215 6.57775L66.4966 1.95553L64.9282 1.84886L63.3598 1.74219L59.0824 12.1244ZM66.7462 8.35553C67.9225 11.4489 68.8849 14.1155 68.8849 14.2578C68.8849 14.4355 66.8887 14.5778 64.4292 14.5778C61.0785 14.5778 59.9735 14.4711 59.9735 14.1155C59.9735 13.8666 60.829 11.4489 61.8627 8.71108C62.9321 5.97331 63.8945 3.41331 64.0371 3.05775C64.144 2.70219 64.3579 2.45331 64.4292 2.55997C64.5361 2.63108 65.5699 5.22664 66.7462 8.35553Z" fill="black"/>
<path d="M73.2692 3.80446C73.697 4.94224 75.5149 9.70668 77.2615 14.4L80.5053 22.9333H81.8955H83.3213L87.3136 12.4445C91.0207 2.66668 91.2346 1.95557 90.5573 1.8489C90.1652 1.77779 89.7375 1.88446 89.5949 2.09779C89.4879 2.27557 87.8482 6.86224 85.9947 12.2311C84.1411 17.6356 82.5371 22.0445 82.4301 22.0445C82.3232 22.0445 80.6479 17.4933 78.723 11.9111L75.1941 1.77779H73.8396H72.485L73.2692 3.80446Z" fill="black"/>
<path d="M92.7673 12.4444V23.1111H100.431C105.315 23.1111 108.095 22.9689 108.095 22.7555C108.095 22.5422 105.671 22.4 101.5 22.4H94.9061V17.6V12.8H100.752C104.281 12.8 106.705 12.6578 106.847 12.4444C106.99 12.1955 104.958 12.0889 101.001 12.0889H94.9061V7.28886V2.48886H101.5C105.671 2.48886 108.095 2.34664 108.095 2.13331C108.095 1.91997 105.315 1.77775 100.431 1.77775H92.7673V12.4444Z" fill="black"/>
<path d="M109.521 12.4445V23.1112H110.59H111.659L111.731 13.3334L111.838 3.55562L117.755 13.2267C123.316 22.4001 123.708 22.9334 124.777 23.0401L125.918 23.1467V12.4801V1.77784H124.848H123.779V11.449C123.743 19.2001 123.672 21.049 123.316 20.5867C123.066 20.2667 120.393 15.8934 117.363 10.8801C111.945 1.99117 111.802 1.77784 110.697 1.77784H109.521V12.4445Z" fill="black"/>
<path d="M128.769 12.4444V23.1111H136.433C141.174 23.1111 144.097 22.9689 144.097 22.7555C144.097 22.5422 141.459 22.3644 137.431 22.3289L130.73 22.2222V17.6V12.9778L136.718 12.8711C140.176 12.8355 142.671 12.6578 142.671 12.4444C142.671 12.2311 140.176 12.0533 136.718 12.0178L130.73 11.9111L130.623 7.18219L130.516 2.48886H137.324C141.602 2.48886 144.097 2.34664 144.097 2.13331C144.097 1.91997 141.316 1.77775 136.433 1.77775H128.769V12.4444Z" fill="black"/>
<path d="M145.523 12.4089V23.1111H146.592H147.661V17.7422V12.3378L150.299 12.5511C151.725 12.6578 153.4 12.9778 153.935 13.2622C156.288 14.4711 157.642 16.8889 157.963 20.4089L158.177 22.9333L159.353 23.04C160.494 23.1466 160.494 23.1466 160.494 21.5822C160.494 17.8844 158.462 14.3289 155.61 12.9778L154.327 12.3733L156.252 11.7333C158.854 10.8444 160.494 9.06664 160.494 7.11108C160.494 5.01331 159.71 3.76886 157.749 2.80886C156.216 2.06219 155.432 1.95553 150.798 1.84886L145.523 1.74219V12.4089ZM156.965 3.83997C158.961 6.07997 158.034 9.56442 155.004 10.9866C153.864 11.5555 152.794 11.7333 150.584 11.7333H147.661V7.07553V2.41775L151.796 2.55997L155.931 2.66664L156.965 3.83997Z" fill="black"/>
<path d="M165.734 11.8755C163.417 17.4578 161.456 22.2933 161.349 22.5778C161.171 22.9689 161.385 23.1111 162.026 23.1111C162.846 23.1111 163.06 22.7555 164.45 19.2L165.947 15.2533L170.974 15.36L176 15.4666L177.39 19.2711L178.78 23.1111H180.206C181.489 23.1111 181.596 23.04 181.382 22.2933C181.275 21.8666 179.35 17.1022 177.105 11.7333L173.041 1.95553L171.473 1.84886L169.904 1.74219L165.734 11.8755ZM173.29 8.46219C174.502 11.6266 175.465 14.3289 175.465 14.4C175.465 14.6489 166.732 14.6133 166.482 14.4C166.375 14.2933 167.195 11.84 168.3 8.95997C169.441 6.07997 170.439 3.41331 170.581 3.05775C170.724 2.70219 170.902 2.45331 170.974 2.52442C171.08 2.59553 172.114 5.26219 173.29 8.46219Z" fill="black"/>
</svg>
