<svg width="23" height="22" viewBox="0 0 23 22" fill="none" xmlns="http://www.w3.org/2000/svg">
<path d="M11.5 3C16.1946 3 20 6.80545 20 11.5C20 16.1945 16.1946 20 11.5 20C9.99787 20.0024 8.52217 19.6049 7.22451 18.8482L3.00341 20L4.15261 15.7772C3.39534 14.4791 2.9975 13.0028 3.00001 11.5C3.00001 6.80545 6.80546 3 11.5 3ZM8.60321 7.505L8.43321 7.5118C8.32315 7.5185 8.21559 7.54741 8.11701 7.5968C8.0248 7.64901 7.94063 7.71429 7.86711 7.7906C7.76511 7.88665 7.70731 7.96995 7.64526 8.0507C7.33086 8.45946 7.16159 8.96131 7.16416 9.477C7.16586 9.8935 7.27466 10.2989 7.44466 10.678C7.79231 11.4447 8.36436 12.2565 9.11916 13.0087C9.30106 13.1898 9.47956 13.3717 9.67166 13.5408C10.6095 14.3666 11.7272 14.9621 12.9357 15.2799L13.4185 15.3539C13.5757 15.3624 13.733 15.3505 13.8911 15.3428C14.1386 15.3301 14.3803 15.263 14.5991 15.1465C14.7104 15.0892 14.819 15.0268 14.9247 14.9595C14.9247 14.9595 14.9612 14.9357 15.0309 14.883C15.1457 14.798 15.2162 14.7376 15.3114 14.6382C15.382 14.5651 15.4432 14.4792 15.4899 14.3815C15.5562 14.2429 15.6225 13.9786 15.6497 13.7584C15.6701 13.5901 15.6642 13.4983 15.6616 13.4414C15.6582 13.3504 15.5826 13.2561 15.5001 13.2161L15.0054 12.9943C15.0054 12.9943 14.2659 12.6721 13.8137 12.4664C13.7664 12.4458 13.7157 12.434 13.6641 12.4316C13.6059 12.4256 13.5472 12.4322 13.4918 12.4508C13.4363 12.4694 13.3856 12.4997 13.3428 12.5395C13.3386 12.5378 13.2816 12.5863 12.6671 13.3309C12.6318 13.3783 12.5832 13.4141 12.5275 13.4338C12.4718 13.4535 12.4115 13.4561 12.3543 13.4414C12.2989 13.4265 12.2446 13.4078 12.1919 13.3853C12.0865 13.3411 12.05 13.3241 11.9777 13.2935C11.4899 13.0806 11.0382 12.793 10.639 12.4409C10.5319 12.3474 10.4324 12.2454 10.3304 12.1468C9.99601 11.8266 9.70457 11.4643 9.46341 11.069L9.41326 10.9883C9.37724 10.934 9.34811 10.8755 9.32656 10.814C9.29426 10.6891 9.37841 10.5888 9.37841 10.5888C9.37841 10.5888 9.58496 10.3627 9.68101 10.2403C9.77451 10.1213 9.85356 10.0057 9.90456 9.92325C10.0049 9.76175 10.0363 9.596 9.98361 9.46765C9.74561 8.88625 9.49911 8.3074 9.24581 7.7328C9.19566 7.6189 9.04691 7.5373 8.91176 7.52115C8.86586 7.51605 8.81996 7.51095 8.77406 7.50755C8.65991 7.50188 8.54552 7.50301 8.43151 7.51095L8.60321 7.505Z" fill="white"/>
</svg>
