<?xml version="1.0" encoding="utf-8"?>
<!-- Generator: Adobe Illustrator 25.4.1, SVG Export Plug-In . SVG Version: 6.00 Build 0)  -->
<svg version="1.1" id="Слой_1" xmlns="http://www.w3.org/2000/svg" xmlns:xlink="http://www.w3.org/1999/xlink" x="0px" y="0px"
	 viewBox="0 0 224 104.5" style="enable-background:new 0 0 224 104.5;" xml:space="preserve">
<style type="text/css">
	.st0{fill:#2A2A2A;}
</style>
<g>
	<path class="st0" d="M32.78,51.99l-8.61-15.2h5.32l5.99,11l6.12-11h4.88l-8.27,14.94l8.77,16.03h-5.27l-6.28-11.85l-6.25,11.85
		h-5.06L32.78,51.99z"/>
	<path class="st0" d="M92.4,44.34c-0.13-2.49-1.87-3.99-4.64-3.99c-2.72,0-4.72,1.71-4.72,3.99c0,0.96,0.39,1.84,1.14,2.59
		c0.75,0.78,2.18,1.66,4.23,2.67l1.76,0.83c5.32,2.62,7.26,5.19,7.26,9.21c0,5.19-3.99,8.48-10.25,8.48c-5.78,0-8.98-3.11-9.18-8.92
		h4.77v0.16c0,3.04,1.66,4.8,4.46,4.8c3.19,0,5.42-1.95,5.42-4.57c0-1.12-0.34-2.08-1.04-2.85c-0.7-0.75-2.41-1.79-5.14-3.11
		l-2.18-1.06c-4.02-1.89-5.99-4.59-5.99-8.12c0-4.8,3.94-8.07,9.78-8.07c5.27,0,8.64,2.98,9.03,7.96H92.4z"/>
	<path class="st0" d="M136.76,36.58h6.2l8.2,31.18h-4.8l-2.18-8.98h-9.03l-2.23,8.98h-4.31L136.76,36.58z M139.67,40.6l-3.5,14.09
		h7.03L139.67,40.6z"/>
	<path class="st0" d="M184.24,63.4h5.58V40.99h-4.62v-3.94h13.72v3.94h-4.64V63.4h5.6v4.1h-15.64V63.4z"/>
</g>
</svg>
